<?xml version="1.0" standalone="no"?>
<!DOCTYPE svg PUBLIC "-//W3C//DTD SVG 20010904//EN"
 "http://www.w3.org/TR/2001/REC-SVG-20010904/DTD/svg10.dtd">
<svg version="1.0" xmlns="http://www.w3.org/2000/svg"
 width="1280.000000pt" height="1280.000000pt" viewBox="0 0 1280.000000 1280.000000"
 preserveAspectRatio="xMidYMid meet">
<metadata>
Created by potrace 1.15, written by Peter Selinger 2001-2017
</metadata>
<g transform="translate(0.000000,1280.000000) scale(0.100000,-0.100000)"
fill="#ffffff" stroke="none">
<path d="M3715 11030 c-299 -27 -568 -90 -840 -197 -679 -267 -1214 -778
-1488 -1424 -101 -236 -173 -522 -202 -797 -17 -161 -19 -469 -4 -632 33 -361
129 -730 281 -1079 54 -125 126 -271 132 -271 3 0 -13 39 -33 88 -135 310
-204 647 -204 997 0 268 30 465 108 700 280 855 1116 1461 2175 1576 153 16
481 14 635 -6 469 -58 876 -215 1207 -466 102 -78 270 -239 350 -336 144 -176
278 -416 356 -637 35 -97 40 -106 46 -80 15 59 98 259 147 355 166 322 438
617 750 810 947 588 2348 469 3214 -273 599 -513 851 -1245 714 -2068 -123
-739 -597 -1449 -1462 -2192 -340 -293 -727 -584 -1412 -1063 -568 -396 -877
-621 -1100 -800 -384 -309 -645 -580 -800 -830 -50 -81 -61 -94 -70 -80 -117
196 -242 354 -419 530 -293 291 -590 520 -1466 1135 -516 362 -726 513 -950
683 -294 224 -593 473 -770 642 -181 171 -154 138 55 -71 423 -422 753 -702
1710 -1454 696 -547 926 -738 1226 -1016 346 -322 611 -645 746 -910 26 -52
50 -94 53 -94 3 0 27 42 53 94 135 265 400 588 746 910 300 278 530 469 1226
1016 724 569 1012 806 1340 1101 1173 1057 1756 2028 1854 3089 15 163 13 471
-4 632 -88 829 -500 1512 -1185 1961 -356 233 -759 380 -1220 444 -191 26
-549 23 -740 -6 -536 -82 -942 -268 -1329 -610 -309 -273 -582 -719 -708
-1154 -15 -53 -30 -97 -33 -97 -3 0 -18 44 -33 97 -61 210 -177 468 -295 657
-444 705 -1185 1111 -2067 1130 -104 3 -235 1 -290 -4z"/>
</g>
</svg>
