<?xml version="1.0" standalone="no"?>
<!DOCTYPE svg PUBLIC "-//W3C//DTD SVG 20010904//EN"
 "http://www.w3.org/TR/2001/REC-SVG-20010904/DTD/svg10.dtd">
<svg version="1.0" xmlns="http://www.w3.org/2000/svg"
 width="1280.000000pt" height="1280.000000pt" viewBox="0 0 1280.000000 1280.000000"
 preserveAspectRatio="xMidYMid meet">
<metadata>
Created by potrace 1.15, written by Peter Selinger 2001-2017
</metadata>
<g transform="translate(0.000000,1280.000000) scale(0.100000,-0.100000)"
fill="#ffffff" stroke="none">
<path d="M3240 12690 c-837 -49 -1545 -357 -2134 -930 -582 -565 -911 -1286
-987 -2158 -18 -206 -7 -716 20 -917 94 -705 332 -1346 718 -1935 143 -217
211 -307 388 -510 287 -330 945 -1093 1454 -1685 191 -223 289 -359 441 -610
348 -578 558 -1206 637 -1905 22 -196 25 -819 5 -1040 -17 -187 -47 -432 -73
-590 -27 -169 -27 -199 1 -222 31 -25 48 -23 147 17 48 19 95 35 104 35 26 0
398 189 764 387 1642 891 2981 1774 4215 2782 704 575 1381 1225 1881 1807
201 234 253 298 446 555 722 959 1173 1933 1332 2879 74 441 87 905 35 1260
-101 689 -400 1271 -914 1779 -586 579 -1274 908 -2075 992 -143 15 -518 15
-670 -1 -550 -54 -1056 -247 -1473 -562 -397 -299 -707 -667 -1011 -1198 -40
-69 -75 -126 -79 -127 -4 -2 -20 32 -36 75 -145 392 -446 796 -806 1084 -663
529 -1479 788 -2330 738z m1745 -2125 c204 -29 399 -105 595 -233 208 -135
397 -326 518 -524 86 -141 154 -294 193 -438 33 -124 47 -156 75 -169 54 -24
70 -4 199 249 168 329 291 507 478 692 206 204 429 334 685 400 217 56 519 49
744 -16 250 -73 457 -198 672 -406 339 -328 552 -727 630 -1177 59 -341 43
-831 -40 -1243 -88 -442 -259 -903 -501 -1353 -698 -1300 -2049 -2657 -3816
-3836 -318 -212 -444 -287 -422 -251 17 27 37 324 42 610 4 252 2 349 -12 485
-48 495 -163 915 -364 1340 -116 243 -168 323 -925 1395 -272 386 -324 468
-421 665 -226 461 -337 920 -352 1460 -18 665 129 1207 441 1623 117 156 186
231 305 335 177 152 372 268 561 330 75 25 245 63 310 70 91 10 315 5 405 -8z"/>
</g>
</svg>
