<?xml version="1.0" standalone="no"?>
<!DOCTYPE svg PUBLIC "-//W3C//DTD SVG 20010904//EN"
 "http://www.w3.org/TR/2001/REC-SVG-20010904/DTD/svg10.dtd">
<svg version="1.0" xmlns="http://www.w3.org/2000/svg"
 width="1280.000000pt" height="1028.000000pt" viewBox="0 0 1280.000000 1028.000000"
 preserveAspectRatio="xMidYMid meet">
<metadata>
Created by potrace 1.15, written by Peter Selinger 2001-2017
</metadata>
<g transform="translate(0.000000,1028.000000) scale(0.100000,-0.100000)"
fill="#ffffff" stroke="none">
<path d="M9572 9605 c-23 -7 -48 -18 -55 -23 -7 -5 -31 -13 -55 -17 -54 -9
-99 -46 -127 -107 l-22 -48 -16 40 c-17 43 -58 74 -122 91 -22 6 -66 22 -97
36 -51 21 -62 23 -100 13 -24 -6 -59 -22 -79 -35 -20 -13 -54 -28 -76 -34 -57
-15 -99 -68 -117 -146 -4 -16 -17 -51 -28 -77 l-21 -47 -30 40 c-16 22 -42 46
-57 54 -33 17 -251 28 -287 14 -22 -8 -83 -61 -173 -151 -27 -27 -40 -65 -40
-120 0 -28 0 -28 -30 -13 -16 8 -36 15 -43 15 -8 0 -35 11 -58 25 -59 34 -109
32 -183 -5 -32 -17 -76 -35 -96 -40 -48 -13 -95 -66 -111 -122 -6 -24 -22 -67
-36 -96 -25 -51 -27 -86 -8 -134 5 -14 0 -16 -37 -16 -24 0 -48 -2 -53 -3 -6
-2 -31 0 -57 5 -32 5 -56 3 -80 -7 -32 -14 -98 -72 -98 -86 0 -4 -21 -23 -46
-41 -25 -18 -52 -47 -59 -64 -17 -41 -15 -261 4 -294 12 -22 11 -23 -21 -17
-18 3 -53 1 -78 -5 -25 -7 -70 -14 -100 -17 -72 -6 -104 -26 -156 -98 -23 -33
-55 -78 -71 -99 -23 -32 -28 -49 -27 -93 1 -29 6 -65 12 -81 6 -15 13 -53 15
-84 6 -66 3 -69 -91 -71 -42 -2 -66 -8 -91 -26 l-33 -24 -22 26 c-22 27 -95
67 -121 67 -8 0 -32 11 -53 24 -21 13 -46 25 -56 27 -17 4 -19 16 -18 133 1
145 -8 180 -61 219 -16 12 -51 43 -76 69 -61 62 -87 71 -188 63 -45 -4 -86 -4
-92 -1 -5 4 1 26 16 52 21 38 24 53 19 92 -3 25 -15 64 -25 87 -11 22 -23 57
-27 78 -3 21 -18 52 -32 68 -26 31 -90 69 -117 69 -9 0 -33 12 -52 28 -46 35
-117 37 -183 6 -56 -27 -130 -45 -130 -33 0 5 7 26 15 46 27 64 15 141 -31
194 -8 9 -27 40 -42 70 -32 63 -57 79 -167 110 -124 35 -157 35 -212 5 -57
-33 -63 -27 -63 68 l0 68 -87 87 c-49 49 -98 93 -110 100 -15 7 -66 10 -152 8
-124 -4 -132 -5 -167 -32 -20 -15 -45 -43 -56 -62 -11 -18 -28 -38 -38 -43
-22 -12 -40 13 -59 80 -7 25 -23 56 -34 68 -25 28 -88 62 -113 62 -10 0 -25 6
-33 14 -9 7 -37 21 -62 30 -43 16 -50 16 -102 1 -31 -9 -59 -20 -62 -25 -3 -5
-31 -16 -62 -25 -34 -10 -67 -28 -83 -45 l-27 -29 -30 32 c-16 18 -41 49 -56
69 -16 21 -38 43 -50 50 -21 11 -183 29 -255 29 -34 0 -115 -49 -125 -75 -3
-8 -24 -27 -47 -41 -45 -28 -80 -78 -80 -112 0 -28 -5 -28 -37 -3 -14 11 -31
20 -37 20 -6 0 -22 12 -36 26 -43 47 -67 56 -130 55 -33 0 -69 -5 -80 -11 -10
-5 -36 -10 -58 -10 -62 0 -100 -19 -137 -68 -19 -24 -35 -49 -35 -54 0 -6 -18
-30 -40 -55 -36 -42 -40 -51 -40 -101 0 -31 5 -70 12 -89 18 -50 3 -51 -44 -3
-65 65 -87 71 -230 64 l-123 -7 -92 -93 c-51 -51 -95 -105 -99 -119 -3 -14 -4
-53 -2 -85 l4 -60 -52 0 c-29 0 -64 -4 -78 -10 -15 -5 -54 -14 -88 -20 -71
-11 -110 -41 -139 -106 -10 -22 -28 -49 -40 -60 -49 -44 -65 -138 -34 -198 8
-15 15 -50 15 -76 0 -33 7 -58 23 -81 l23 -35 -62 4 c-70 5 -111 -13 -157 -67
-13 -16 -42 -41 -65 -56 -57 -38 -72 -82 -75 -226 l-2 -116 40 -47 c63 -76 71
-89 58 -93 -7 -3 -27 -15 -45 -28 -18 -13 -56 -35 -85 -48 -57 -28 -76 -51
-93 -117 -6 -25 -21 -73 -32 -108 -23 -71 -18 -110 25 -173 12 -19 29 -49 37
-68 7 -18 24 -46 37 -61 l23 -28 -22 -21 c-13 -11 -39 -31 -57 -43 -51 -34
-72 -76 -76 -155 -2 -37 -7 -89 -11 -115 -5 -40 -3 -53 20 -93 15 -25 38 -52
51 -61 14 -9 25 -22 25 -29 0 -7 19 -33 43 -59 32 -34 51 -46 73 -46 28 -1 28
-1 9 -15 -48 -35 -65 -60 -81 -113 -9 -31 -25 -76 -35 -100 -31 -70 -21 -138
29 -203 12 -14 24 -39 28 -55 4 -16 14 -40 23 -53 16 -25 103 -71 135 -71 24
0 96 -31 96 -41 0 -4 -20 -24 -46 -45 -25 -20 -50 -46 -56 -57 -6 -11 -12 -77
-15 -146 l-4 -126 32 -48 c18 -27 42 -53 53 -58 12 -6 32 -26 46 -46 36 -53
75 -73 143 -73 34 0 57 -4 57 -11 0 -6 -14 -31 -32 -57 -39 -57 -42 -116 -10
-183 12 -25 22 -58 22 -73 0 -62 56 -128 129 -151 13 -4 42 -20 66 -37 23 -16
61 -32 84 -35 34 -5 41 -9 35 -22 -6 -17 -20 -102 -30 -188 -6 -47 -3 -57 26
-103 18 -27 36 -50 41 -50 5 0 16 -18 25 -40 9 -22 29 -51 45 -64 27 -23 122
-51 138 -42 4 3 27 -2 52 -11 28 -9 61 -13 91 -9 45 5 47 4 39 -17 -5 -12 -12
-74 -16 -137 -7 -114 -6 -116 20 -155 15 -22 38 -51 51 -65 13 -14 40 -44 60
-67 40 -47 79 -63 159 -63 28 0 67 -3 87 -6 33 -6 36 -9 27 -26 -24 -45 -6
-130 40 -182 9 -10 27 -41 41 -69 28 -58 74 -94 129 -102 20 -3 56 -11 81 -17
25 -7 68 -13 96 -13 l50 0 12 -62 c7 -34 12 -84 12 -111 0 -58 28 -106 79
-137 18 -11 54 -39 78 -63 53 -49 73 -56 145 -48 29 3 81 8 116 11 35 3 72 9
82 15 16 8 18 3 24 -53 3 -34 6 -79 6 -99 -1 -68 17 -113 63 -152 162 -141
165 -142 250 -132 29 3 78 7 109 8 l57 3 -2 -65 c-2 -58 1 -69 28 -105 16 -22
35 -43 41 -47 7 -5 24 -28 38 -52 36 -61 64 -76 169 -88 159 -19 180 -17 226
20 l40 32 6 -37 c4 -21 10 -49 15 -63 5 -14 12 -45 16 -70 11 -78 40 -114 126
-160 15 -8 46 -28 69 -45 34 -24 50 -29 92 -28 29 1 66 7 82 13 17 7 46 14 65
16 19 2 46 6 59 10 32 7 41 -9 41 -76 0 -36 7 -66 19 -86 16 -26 98 -95 193
-163 16 -12 40 -13 141 -4 67 5 130 13 140 18 12 5 17 3 17 -8 0 -8 6 -20 14
-26 7 -6 16 -34 20 -61 8 -61 47 -109 108 -134 24 -10 57 -25 73 -33 17 -9 43
-23 58 -31 34 -17 101 -11 147 13 16 8 32 16 35 16 2 0 24 6 48 13 l44 13 11
-41 c6 -23 21 -57 34 -76 13 -19 32 -56 42 -83 19 -52 71 -91 137 -103 19 -4
53 -15 77 -26 66 -27 93 -23 216 36 110 53 114 56 140 107 14 29 26 60 26 70
0 9 9 39 21 66 l20 50 47 -24 c39 -20 55 -23 97 -18 28 4 79 9 114 11 70 5
114 26 146 71 11 15 38 48 61 73 48 52 64 80 64 110 0 19 2 20 29 6 39 -20
263 -21 301 -1 27 14 90 79 90 93 0 4 14 16 31 26 52 30 70 71 68 151 -3 145
-2 145 82 94 45 -28 56 -31 105 -26 30 3 70 14 88 25 19 11 52 23 74 27 23 4
53 16 67 27 25 19 65 86 65 107 0 6 14 33 30 59 17 27 30 61 30 76 0 33 9 33
67 -4 54 -34 104 -38 168 -14 22 9 61 19 87 24 26 5 56 13 67 19 27 15 68 70
83 112 6 19 22 47 35 62 12 16 26 40 29 54 9 36 -3 120 -21 145 -8 13 -15 33
-15 46 0 23 1 23 26 -8 48 -56 72 -63 212 -55 139 7 173 19 214 78 12 18 41
53 64 79 52 56 59 79 50 169 -6 69 -6 70 15 58 31 -16 260 -4 298 15 15 8 41
31 57 51 16 19 48 55 71 79 49 51 57 75 51 154 l-4 57 56 1 c31 1 67 7 80 14
14 8 49 17 79 21 68 10 98 31 136 101 16 30 44 74 60 98 25 36 30 53 29 96 -1
29 -9 67 -18 85 -9 17 -16 42 -16 54 l0 23 38 -20 c42 -22 81 -19 145 10 23
11 64 25 90 32 26 7 59 22 73 32 26 21 64 87 64 113 0 8 12 34 27 58 35 53 38
124 7 182 -11 22 -24 52 -27 66 l-6 25 52 -8 c28 -5 79 -11 112 -14 55 -5 64
-3 105 25 175 118 180 125 200 241 26 147 25 156 -9 212 -18 28 -30 51 -29 53
2 1 23 6 48 13 25 6 80 22 122 37 87 30 116 56 144 132 10 26 27 62 38 78 29
42 28 123 -3 197 -34 81 -28 91 64 103 40 6 57 14 87 45 20 22 42 56 48 77 7
21 23 50 37 64 37 40 46 86 27 150 -8 30 -21 79 -28 109 -18 77 -31 97 -84
131 l-46 29 61 -6 c34 -4 72 -4 86 0 13 3 57 35 97 71 40 36 77 65 82 65 23 0
46 88 53 200 l6 115 -31 48 c-18 26 -36 47 -40 47 -4 0 -24 21 -43 47 l-35 48
51 20 c58 24 90 63 108 129 6 23 19 60 30 84 10 23 19 59 19 80 0 38 -30 114
-49 126 -6 4 -11 14 -11 22 0 37 -42 102 -80 123 l-40 22 33 28 c17 16 50 37
72 49 22 11 47 33 57 49 16 28 34 100 30 117 -2 5 4 26 13 48 8 21 15 55 15
74 0 36 -45 134 -61 134 -5 0 -20 21 -33 48 -13 26 -35 57 -48 69 -27 24 -86
43 -140 43 -45 0 -56 13 -22 29 25 11 74 99 74 132 0 9 9 36 20 60 31 69 22
139 -29 219 -6 8 -20 38 -33 65 -20 42 -32 54 -78 77 -30 15 -66 28 -80 28
-34 2 -86 34 -81 51 2 8 4 37 5 65 1 27 6 55 10 62 3 6 7 31 8 56 1 47 -35
122 -70 148 -10 7 -30 34 -45 59 -41 72 -93 88 -298 93 l-57 1 -6 50 c-4 28
-6 71 -6 97 1 61 -21 107 -70 147 -21 17 -42 31 -46 31 -3 0 -26 20 -50 44
-50 51 -103 66 -170 47 -21 -6 -63 -11 -92 -11 -51 0 -112 -23 -112 -42 0 -4
-4 -8 -10 -8 -6 0 -10 28 -10 65 0 58 -3 68 -32 102 -18 21 -39 42 -47 47 -8
5 -40 33 -73 62 -65 61 -65 61 -260 46 -95 -8 -117 -20 -164 -94 -39 -62 -49
-53 -93 77 -17 53 -77 108 -129 122 -15 3 -47 19 -71 35 -49 31 -83 34 -149
13z m403 -701 c73 -65 86 -76 125 -107 l35 -29 130 7 c132 7 150 12 180 42 24
23 35 2 35 -67 0 -35 6 -64 18 -81 20 -31 75 -79 90 -79 6 0 15 -6 19 -14 4
-8 26 -29 48 -46 l40 -32 121 7 c140 7 143 6 120 -83 -16 -60 -6 -104 33 -150
17 -20 47 -60 66 -89 48 -70 86 -86 218 -93 12 0 -4 -82 -24 -122 -11 -21 -19
-48 -19 -61 0 -31 26 -95 49 -122 10 -11 24 -39 31 -63 17 -53 65 -97 122
-112 87 -23 119 -34 124 -41 2 -4 -11 -17 -30 -28 -53 -33 -70 -82 -93 -277
-5 -45 19 -104 56 -138 12 -11 21 -23 21 -28 0 -19 61 -97 81 -103 26 -9 17
-17 -43 -39 -56 -21 -93 -61 -109 -119 -7 -23 -22 -64 -35 -91 -34 -71 -29
-131 16 -196 10 -14 24 -45 31 -69 7 -24 26 -56 42 -72 l29 -29 -24 -28 c-13
-16 -42 -41 -66 -56 -55 -36 -75 -76 -78 -151 -1 -33 -4 -83 -8 -111 -10 -66
6 -104 73 -173 28 -29 49 -56 46 -59 -10 -10 -78 -33 -138 -46 -67 -15 -106
-48 -139 -115 -12 -25 -33 -61 -46 -79 -35 -46 -39 -110 -13 -191 12 -35 21
-72 21 -82 0 -23 -35 -47 -81 -55 -18 -4 -46 -13 -62 -21 -30 -15 -73 -76 -83
-120 -4 -15 -12 -35 -19 -43 -50 -60 -56 -133 -17 -209 11 -21 24 -55 27 -74
l7 -35 -41 5 c-43 6 -103 -18 -151 -61 -14 -13 -46 -35 -71 -49 -56 -32 -75
-68 -90 -169 -24 -159 -24 -159 15 -216 19 -29 33 -52 32 -52 -2 0 -25 12 -51
26 -40 23 -55 26 -106 21 -33 -3 -70 -12 -82 -20 -12 -8 -48 -22 -80 -31 -47
-14 -63 -24 -87 -58 -17 -23 -33 -53 -37 -67 -3 -14 -18 -47 -34 -72 -35 -55
-38 -114 -9 -178 11 -24 20 -45 20 -47 0 -1 -14 2 -30 8 -21 7 -46 7 -83 0
-118 -24 -178 -40 -202 -56 -26 -17 -85 -92 -85 -108 0 -6 -15 -30 -32 -55
-29 -39 -33 -53 -32 -103 l1 -57 -60 -7 c-33 -3 -82 -6 -109 -6 -44 0 -53 -4
-98 -46 -28 -26 -50 -50 -50 -54 0 -4 -23 -30 -51 -59 l-52 -51 5 -90 c5 -86
5 -89 -14 -79 -13 7 -66 8 -155 3 l-136 -7 -41 -43 c-133 -138 -145 -153 -152
-199 -4 -28 -1 -63 6 -90 7 -24 9 -60 6 -79 -8 -41 -16 -40 -86 8 -36 24 -55
30 -95 30 -28 -1 -64 -8 -80 -16 -17 -8 -56 -20 -87 -27 -63 -14 -104 -50
-140 -125 -11 -23 -30 -59 -44 -81 -13 -22 -24 -52 -24 -67 0 -37 -19 -36 -87
3 -47 27 -61 31 -100 25 -25 -3 -64 -15 -87 -25 -23 -11 -57 -22 -77 -26 -58
-9 -86 -39 -145 -160 -50 -101 -55 -118 -49 -154 l7 -41 -36 15 c-26 11 -64
14 -151 11 -122 -4 -135 -8 -190 -63 -109 -108 -133 -139 -139 -180 l-7 -41
-35 20 c-31 18 -44 19 -156 13 -136 -8 -161 -17 -204 -70 -16 -19 -50 -60 -76
-90 -47 -55 -65 -102 -56 -150 3 -14 4 -25 2 -25 -16 0 -118 32 -142 44 -54
28 -136 13 -187 -33 -11 -10 -32 -21 -46 -25 -24 -5 -28 -2 -37 32 -16 56 -51
154 -65 181 -12 23 -100 81 -125 81 -7 0 -29 12 -48 26 -44 34 -105 41 -164
19 -25 -9 -64 -23 -87 -30 l-43 -14 0 49 c0 27 -4 59 -9 72 -11 29 -78 96
-104 104 -11 3 -32 21 -48 39 -40 45 -78 59 -142 51 -28 -4 -83 -11 -122 -15
-38 -4 -77 -11 -85 -14 -18 -9 -50 62 -50 111 0 18 -7 46 -15 61 -15 30 -90
91 -111 91 -7 0 -28 14 -46 30 -46 43 -95 56 -155 42 -26 -6 -79 -18 -118 -27
-38 -9 -75 -21 -82 -27 -16 -13 -16 -12 -2 51 14 66 0 110 -55 170 -23 25 -55
63 -70 85 -36 48 -69 61 -176 71 -116 10 -121 10 -151 2 -23 -6 -28 -3 -39 23
-7 18 -10 44 -6 65 10 52 -9 99 -57 140 -22 19 -44 35 -49 35 -4 0 -24 17 -43
39 -48 52 -82 65 -153 57 -31 -4 -84 -9 -118 -10 -33 -2 -69 -8 -81 -14 -18
-10 -20 -8 -20 16 0 69 -17 210 -29 233 -7 14 -31 41 -53 60 -158 135 -154
133 -240 125 -91 -9 -140 -10 -146 -5 -2 3 2 23 10 44 8 22 14 57 15 78 0 37
-29 109 -50 122 -6 4 -21 27 -34 53 -33 64 -62 89 -121 102 -27 7 -78 21 -113
32 -34 11 -71 18 -82 15 -27 -7 -30 1 -18 57 15 72 4 108 -55 173 -29 32 -61
70 -70 85 -28 45 -62 60 -135 64 -37 2 -97 6 -133 10 l-67 7 10 34 c5 18 8 41
7 51 -1 9 3 35 9 57 19 65 15 97 -20 150 -18 26 -48 71 -65 99 -18 28 -42 58
-53 67 -20 17 -79 33 -160 44 -62 8 -79 19 -63 42 54 78 65 135 37 208 -8 22
-17 51 -20 65 -21 103 -41 128 -143 179 -31 16 -73 37 -93 47 -26 13 -35 23
-31 34 9 19 14 225 7 267 -3 24 -28 56 -87 117 -95 97 -110 106 -172 106 l-47
0 29 28 c16 15 37 47 45 72 41 118 58 177 58 197 0 21 -20 69 -65 153 -13 25
-24 50 -24 56 -2 31 -110 94 -161 94 -29 0 -9 28 46 63 25 16 51 42 59 57 15
28 40 199 37 254 -2 32 -43 109 -70 128 -27 19 -67 81 -56 85 76 30 119 77
129 142 4 20 15 58 26 85 32 81 21 153 -31 211 -16 17 -54 107 -47 110 45 26
80 51 94 68 10 12 37 34 60 49 54 35 74 75 79 152 2 34 6 87 10 118 6 50 4 62
-20 102 -14 25 -36 52 -47 60 -20 13 -18 15 28 26 26 6 71 15 99 20 28 4 60
13 70 18 25 14 68 60 91 98 10 16 33 52 51 80 29 43 33 56 30 104 l-3 55 50 7
c28 3 65 4 83 1 56 -9 96 5 138 48 21 22 59 60 82 82 68 65 76 86 68 189 l-7
88 28 -12 c15 -7 46 -27 67 -45 51 -42 89 -53 152 -41 27 5 74 13 105 17 30 5
67 15 81 22 29 16 88 85 88 104 0 7 8 19 17 26 9 8 28 33 43 56 l27 42 31 -44
c46 -65 67 -75 173 -82 175 -12 180 -10 283 89 21 21 42 38 46 38 4 0 11 -12
14 -26 4 -14 14 -37 23 -51 17 -25 100 -73 128 -73 8 0 34 -12 58 -27 57 -37
105 -36 189 5 37 17 77 32 89 32 12 0 39 17 60 39 l38 38 11 -33 c6 -18 30
-49 53 -68 23 -20 60 -54 82 -75 61 -60 71 -62 213 -58 l128 5 18 -52 c10 -28
29 -65 42 -83 13 -18 33 -52 44 -77 23 -54 64 -83 130 -91 25 -4 71 -16 103
-27 50 -18 63 -19 98 -9 21 7 54 24 72 40 17 15 42 30 55 34 l23 5 -22 -35
c-18 -28 -21 -44 -16 -88 3 -30 12 -67 21 -82 8 -15 22 -52 32 -82 18 -60 46
-91 102 -115 20 -9 63 -31 96 -48 50 -26 66 -30 110 -25 l51 5 0 -112 c0 -165
0 -166 103 -267 50 -49 102 -91 116 -95 14 -3 50 -4 81 -2 64 4 66 0 29 -67
-34 -59 -34 -109 -1 -177 14 -29 28 -64 32 -78 18 -64 39 -92 86 -116 27 -13
56 -24 65 -24 10 0 25 -6 33 -14 9 -7 37 -21 63 -31 l46 -17 -23 -35 c-13 -19
-27 -55 -30 -81 -3 -26 -10 -69 -16 -95 -5 -26 -9 -61 -9 -76 0 -29 51 -138
73 -156 7 -5 31 -36 55 -67 36 -50 50 -60 96 -73 29 -9 66 -15 82 -15 16 1 57
-2 91 -6 59 -6 65 -5 113 26 27 18 50 36 50 41 0 5 17 17 38 28 57 29 81 61
92 122 28 163 31 190 25 219 -4 17 -22 51 -41 75 -19 25 -34 48 -34 51 0 3 15
5 33 3 17 -1 42 -1 55 0 25 1 108 73 117 101 3 10 26 39 51 64 l46 45 -5 73
c-3 40 -6 96 -6 124 0 28 -5 62 -10 76 -9 24 -7 27 21 37 17 6 48 11 70 11 75
0 141 47 173 123 8 20 20 37 25 37 5 0 21 17 35 37 19 29 25 50 25 91 0 29 -4
61 -9 70 -4 9 -11 47 -14 85 l-6 67 117 0 c107 0 121 2 148 23 64 48 165 157
174 186 4 16 8 71 8 121 0 50 2 93 5 96 3 3 19 -2 36 -10 45 -24 96 -19 165
13 33 16 82 38 108 49 38 17 51 29 72 71 14 28 26 56 26 63 0 7 10 32 22 54
l22 41 35 -20 c24 -15 55 -22 100 -23 36 -2 87 -6 112 -9 58 -8 105 10 156 62
21 22 56 52 77 68 45 34 66 77 66 135 0 38 11 52 25 30 9 -15 81 -50 101 -50
10 0 38 -10 63 -22 72 -36 111 -30 236 32 96 48 112 60 129 94 l19 39 14 -26
c14 -28 89 -77 116 -77 9 0 40 -14 68 -31 45 -28 56 -31 106 -26 30 3 65 13
78 21 14 9 29 16 34 16 6 0 35 9 66 21 46 17 59 28 82 67 l28 47 5 -63 c5 -61
7 -65 55 -108z"/>
</g>
</svg>
