<svg width="23" height="402.00000000000006" xmlns="http://www.w3.org/2000/svg">
 <!-- Created with SVG Editor - http://github.com/mzalive/SVG Editor/ -->

 <g>
  <title>background</title>
  <rect fill="#fff" id="canvas_background" height="404" width="25" y="-1" x="-1"/>
  <g display="none" id="canvasGrid">
   <rect fill="url(#gridpattern)" stroke-width="0" y="1" x="1" height="400" width="580" id="svg_1"/>
  </g>
 </g>
 <g>
  <title>Layer 1</title>
  <g fill="#fff" id="svg_5" stroke="null">
   <path id="svg_4" fill="#ff8585" d="m14.86669,1.37294c1.52422,0 2.80451,0.58882 3.84086,1.76645c1.03645,1.17764 1.55473,2.61505 1.55473,4.31223c0,0.83127 -0.15243,1.6712 -0.45727,2.5198c-0.30484,0.84858 -0.64019,1.60193 -1.00595,2.26001c-0.36585,0.65815 -0.98311,1.50667 -1.85189,2.54577c-0.86878,1.0391 -1.60038,1.87905 -2.19482,2.51983c-0.59444,0.64079 -1.54696,1.61922 -2.85775,2.93541l-1.41755,1.45468l-1.41743,-1.40269c-1.2803,-1.35082 -2.22528,-2.34661 -2.83494,-2.9874c-0.60967,-0.64078 -1.34889,-1.48073 -2.21767,-2.51983c-0.86877,-1.0391 -1.48606,-1.88762 -1.85186,-2.54577c-0.3658,-0.65808 -0.69349,-1.41143 -0.98309,-2.26001c-0.28959,-0.8486 -0.43438,-1.68853 -0.43438,-2.5198c0,-1.69718 0.51821,-3.13459 1.55464,-4.31222c1.03643,-1.17764 2.3015,-1.76646 3.79518,-1.76646c1.76804,0 3.23123,0.77932 4.38955,2.33795c1.15837,-1.55863 2.62158,-2.33795 4.38964,-2.33795zm-4.29813,17.24886c1.49372,-1.52393 2.58341,-2.65832 3.26935,-3.40298c0.68585,-0.74465 1.44029,-1.63658 2.26341,-2.67568c0.82302,-1.03907 1.39453,-1.94827 1.71462,-2.72759c0.3201,-0.77932 0.4801,-1.56729 0.4801,-2.36393c0,-1.10836 -0.32767,-2.02623 -0.98302,-2.75359c-0.65544,-0.72736 -1.47089,-1.09105 -2.44633,-1.09105c-0.73161,0 -1.42513,0.24245 -2.08048,0.72737c-0.65535,0.48491 -1.12029,1.10836 -1.39463,1.87036l-1.82899,0c-0.24386,-0.762 -0.69349,-1.38545 -1.34888,-1.87036c-0.65539,-0.48492 -1.36413,-0.72737 -2.12621,-0.72737c-0.97547,0 -1.78327,0.36369 -2.42343,1.09105c-0.64014,0.72736 -0.96022,1.64523 -0.96022,2.75359c0,0.79664 0.15242,1.58462 0.45725,2.36393c0.30483,0.77932 0.87639,1.68852 1.71469,2.72759c0.83829,1.0391 1.60037,1.93103 2.28625,2.67568c0.68587,0.74466 1.76041,1.87905 3.2236,3.40298l0.09141,0.10397l0.09151,-0.10397z" stroke="null"/>
  </g>
  <path d="m289.88889,88.77778c-2.22223,0 -9.0832,-0.45793 -20,4.44444c-9.06592,4.07119 -17.26873,13.85961 -33.33333,28.88889c-17.25028,16.13855 -34.35042,63.43894 -60,51.11112c-2.0029,-0.96265 0.47201,-8.66817 4.44444,-17.77779c7.58931,-17.4039 12.20653,-27.18669 17.77777,-37.77778c3.73013,-7.09109 8.88889,-13.33332 11.11112,-17.77777c2.22223,-4.44445 3.45063,-8.65428 4.44444,-6.66667c4.96904,9.93807 -20.4843,30.58977 -44.44444,53.33334c-22.90703,21.74392 -28.03849,24.27528 -28.88889,22.22221c-1.20265,-2.90347 8.57393,-11.34096 20,-26.66665c15.14441,-20.31311 23.42488,-21.54097 22.22223,-24.44445c-1.70082,-4.10615 -6.66667,0 -11.11111,4.44445l-2.22223,2.22222" id="svg_6" stroke-width="1.5" stroke="null" fill="none"/>
  <path d="m172.11112,86.55556c0,-2.22222 -2.22223,-2.22222 -4.44445,-2.22222c-2.22223,0 -7.08001,1.53899 -11.11111,4.44444c-7.64847,5.5127 -21.95673,11.0174 -26.66668,24.44444c-2.94228,8.38781 -4.44444,11.11112 -4.44444,15.55556l0,2.22222l-2.22222,0" id="svg_7" stroke-width="1.5" stroke="null" fill="none"/>
  <path stroke="null" d="m88.18969,75.44445c0,1.9184 0,7.67362 0,17.26563c0,11.51043 0,28.77606 0,47.96009c0,9.59203 -3.39901,17.26564 0,17.26564c16.9951,0 0.71232,-13.32041 6.79805,-26.85764c7.70699,-17.14358 11.34422,-29.37078 16.99512,-34.53128c2.52717,-2.30784 3.48994,-5.31444 6.79805,-5.75521c7.39714,-0.98557 10.99932,17.99584 33.99024,42.20488c24.51081,25.80945 42.79237,43.79691 54.38439,46.0417c10.16685,1.96881 14.48515,-5.45062 20.39413,-11.51043c16.14086,-16.55284 40.15151,-38.76482 47.58632,-42.20488c9.4776,-4.38525 12.88181,-3.68633 16.99512,1.91841c5.81712,7.9263 21.39308,30.52392 37.38928,61.38891c10.88015,20.99349 11.07947,28.74805 16.99513,26.85766c17.24695,-5.51139 26.17762,-31.01885 61.18242,-65.22573c29.73756,-29.0597 55.86724,-37.29312 78.17755,-47.96009c7.33558,-3.50728 14.5285,-4.0575 16.99513,0c16.87432,27.75754 13.59609,61.38891 13.59609,84.40976l0,7.67362l0,3.8368" id="svg_8" stroke-width="1.5" fill="none"/>
  <path stroke="#ff8585" d="m227.6667,88.77777c-11.11111,15.55556 -19.27247,34.90773 -24.44444,48.8889c-6.35776,17.18666 -11.88042,30.45657 -15.55556,35.55554c-2.90546,4.03112 -6.295,1.97249 -2.22223,-31.11109c4.478,-36.37524 20.52143,-64.78277 22.22223,-68.8889c1.20265,-2.90347 -0.65249,3.83667 -8.8889,13.33333c-7.28001,8.39393 -24.9467,28.5314 -42.22221,53.33334c-9.15898,13.14926 -11.11112,17.77778 -11.11112,13.33332c0,-22.22221 0,-46.66666 0,-51.1111l0,2.22222l0,6.66667l-8.88888,2.22222" id="svg_9" stroke-width="1.5" fill="none"/>
  <path d="m318.7778,133.22221c-6.66665,15.55556 -14.05511,28.68502 -20,51.11112c-7.59698,28.65831 -17.77777,57.77778 -15.55554,57.77778c6.66666,0 5.85055,-20.47154 26.66666,-55.55555c21.39486,-36.05947 48.70147,-68.35788 75.55557,-77.77779c2.09695,-0.73557 2.66019,2.24386 2.22223,6.66667c-1.11655,11.27601 -6.01895,38.66445 -15.55557,64.44445c-3.44797,9.32077 -6.66666,11.11111 -6.66666,8.88888c0,-4.44444 7.51685,-25.11583 20,-48.88888c6.02405,-11.47223 11.11111,-15.55556 11.11111,-13.33334c0,4.44445 2.85126,11.29481 0,33.33334c-5.60186,43.29887 -15.50549,78.07419 -31.11111,88.8889c-1.82651,1.26578 -2.22223,-2.22223 -2.22223,-4.44446c0,-2.22221 0,-11.1111 0,-15.55554l0,-2.22223" id="svg_10" stroke-width="1.5" stroke="#ff8585" fill="none"/>
  <path d="m183.22226,93.22222c-2.22223,0 -5.96381,0.76345 -15.55556,8.88889c-14.5861,12.35628 -21.04722,18.79727 -35.55555,22.22222c-2.16278,0.51056 -5.09533,1.57135 -6.66668,0c-3.14269,-3.1427 -0.20874,-8.97468 4.44445,-20c8.51014,-20.16407 19.34913,-36.20643 17.77778,-37.77778c-4.71405,-4.71405 -9.0832,1.7643 -20,6.66667c-13.59887,6.1068 -17.09653,12.13067 -20,13.33333c-2.05307,0.85041 -5.73587,-2.79241 -2.22223,-13.33333c3.51365,-10.54093 14.19306,-17.59469 20,-20c2.05307,-0.85041 -1.71248,0.57633 -6.66666,4.44444c-10.21331,7.97431 -27.16162,14.94221 -35.55556,22.22222c-4.74833,4.11821 -4.44445,0 -4.44445,-4.44444c0,-6.66667 6.66667,-8.88889 6.66667,-2.22222c0,4.44444 -8.5227,8.3861 -13.33333,20c-1.70081,4.10613 -6.89538,5.33912 -2.22222,-2.22222c2.61237,-4.22692 8.73688,-14.22049 28.88888,-20.00001c6.40834,-1.83788 9.53977,-3.79357 11.11112,-2.22222c3.1427,3.1427 0.92467,11.17555 0,17.77778c-2.24391,16.02165 -11.11112,28.88889 -11.11112,35.55556l0,4.44444" id="svg_11" stroke-width="1.5" stroke="#ff8585" fill="none"/>
  <path d="m225.44447,179.88888c2.22223,0 4.90402,0.41633 8.88889,-4.44444c10.15947,-12.39255 11.8611,-16.24446 15.55555,-22.22223c3.30443,-5.34668 2.39138,-8.03846 4.44445,-8.88888c2.90349,-1.20267 1.11656,4.27954 0,15.55555c-1.53282,15.47986 -2.22222,20 -2.22222,13.33333c0,-8.88888 -1.9579,-22.70088 2.22222,-35.55554c3.07329,-9.45096 7.70488,-39.34663 22.22224,-33.33334c2.05307,0.85041 0,4.44444 0,6.66667c0,17.77777 -3.33163,53.24104 -4.44446,73.33333c-0.24579,4.43763 -0.46698,-0.1743 2.22223,-6.66666c3.80313,-9.18159 9.80347,-20.89781 17.77777,-31.11111c3.86811,-4.9542 4.44446,2.22221 4.44446,6.66665c0,15.55556 0,35.55556 0,44.44446c0,2.22221 73.33331,-86.66667 73.33331,-80.00001c0,8.88889 -1.60043,24.05833 -8.88888,57.77778c-5.71161,26.42427 -3.59403,40.16916 -4.44443,42.22223c-1.20266,2.90347 -4.44446,2.22221 -4.44446,-2.22223l0,-6.66667l0,-6.66666l0,-2.22223" id="svg_12" stroke-width="1.5" stroke="#ff8585" fill="none"/>
  <path d="m416.5556,133.22221c-2.22223,0 -9.41205,6.07952 -24.44445,20c-13.83521,12.81183 -31.94391,19.57345 -37.77778,37.77779c-1.35635,4.23242 0,6.66667 0,8.88888c0,2.22223 -1.39428,-0.67466 6.66666,-15.55555c11.44894,-21.13527 42.91525,-55.06235 57.77777,-66.66667c10.21332,-7.97431 14.87433,-7.68623 17.7778,-8.88889c2.05304,-0.85039 3.13864,6.70453 2.2222,17.77778c-2.2298,26.94238 -11.11108,64.44445 -11.11108,66.66668c0,2.22221 -0.24195,-0.08559 2.2222,-6.66667c10.13,-27.0546 29.02954,-60.07566 53.33334,-80.00001c6.19626,-5.07973 11.26865,-6.66107 11.11111,-4.44444c-1.11392,15.67395 -12.88375,44.65622 -26.66665,73.33333c-8.61014,17.91446 -20.12381,8.01727 -13.33335,-6.66667c10.08915,-21.81714 24.26136,-27.5264 26.66666,-33.33333c0.8504,-2.05307 0.87161,4.53075 0,8.88889c-5.66559,28.32789 -30.12265,47.98767 -44.44443,68.8889c-7.32428,10.68907 -9.36148,13.31656 -8.88888,6.66665c1.11389,-15.67395 5.34204,-45.40971 24.44443,-60c5.58465,-4.26551 12.94168,-9.96945 17.77777,-11.11111c2.16278,-0.51056 5.30966,0.35394 2.22223,6.66667c-3.52024,7.1976 -11.96686,25.27113 -17.77778,33.33333c-1.83758,2.5495 -3.69445,3.75555 0,-2.22222c3.30445,-5.34668 8.32608,-16.38078 17.77778,-22.22222c4.22692,-2.61239 8.88888,-2.22222 8.88888,0c0,6.66667 -3.44226,8.01425 -11.11111,20c-5.35618,8.3712 -6.14524,10.77279 -4.44443,6.66667c2.4053,-5.80693 5.98343,-9.30223 8.88888,-13.33333c1.83759,-2.5495 6.1453,-4.10614 4.44446,0c-2.40533,5.80695 -11.48999,12.97485 -17.7778,20c-9.48975,10.60254 -10.42987,16.57512 -13.33331,17.77777c-2.05307,0.85042 -4.44446,-2.22221 -4.44446,-6.66667c0,-13.33333 0,-31.1111 0,-53.33333c0,-33.33334 0,-44.44444 0,-53.33334c0,-2.22222 -5.15875,6.24225 -8.88889,13.33334c-5.57122,10.5911 -18.90625,35.04482 -35.55557,73.33333c-4.77209,10.97438 -2.74359,13.67166 -4.44443,17.77778c-1.20266,2.90348 -5.31051,-0.52973 0,-22.22222c5.69123,-23.24756 11.11112,-33.33333 13.33335,-40l2.2222,-2.22222l4.44445,-2.22223" id="svg_13" stroke-width="25.5" stroke="#ff8585" fill="none"/>
  <path d="m461.00003,159.88888c0,11.11112 -1.31354,33.43305 -4.44443,57.77779c-3.44842,26.81366 -4.12381,24.59079 -2.22223,20c5.37848,-12.98474 13.07322,-31.27638 24.44446,-48.8889c4.34595,-6.73128 14.19306,-15.37245 20,-17.77777c2.05304,-0.8504 2.2222,4.44444 2.2222,8.88888c0,2.22223 2.22223,-2.22221 6.66669,-6.66667c8.88888,-8.88888 13.16421,-16.92737 11.11111,-17.77777c-2.9035,-1.20267 -2.38537,6.51473 -4.44446,8.88889c-7.28002,8.39392 -12.94165,23.36389 -17.77777,22.22222c-4.32556,-1.02113 -0.00003,-8.88888 6.66666,-22.22222c4.44446,-8.88889 6.48358,-14.19307 8.88888,-20c0.85041,-2.05306 0.26331,-4.02161 -6.66665,0c-4.29779,2.49411 -5.46402,5.98542 -6.66666,8.88888c-0.8504,2.05307 0,0 0,-6.66666c0,-4.44444 3.32492,-17.57286 4.44443,-26.66667c0.81454,-6.61671 -6.66666,28.88889 -4.44443,28.88889c2.22223,0 0,-4.44445 0,-13.33333c0,-4.44444 0,-2.22223 0,6.66667c0,11.1111 -2.22223,20 0,20c2.22223,0 0,-6.66667 0,-8.8889c0,-11.1111 0,-26.66666 0,-31.11111l0,-2.22222" id="svg_15" stroke-width="48.5" stroke="#ff8585" fill="none"/>
  <path d="m463.22226,196.66667c-2.22223,0 -6.66666,-0.00001 -11.11111,4.44445c-4.44443,4.44444 -14.17942,12.27157 -20,17.77777c-8.07172,7.63574 -11.97083,17.59468 -17.77778,20c-2.05307,0.85041 -3.24179,1.54097 -4.44445,4.44444c-0.85041,2.05307 0,0 0,-2.22221c0,-11.11112 7.53363,-35.06839 22.22223,-62.22223c11.82107,-21.85283 15.55557,-26.66668 15.55557,-24.44445c0,11.11112 -10.9513,24.57926 -22.22223,37.77779c-15.3403,17.96387 -28.30591,38.30527 -44.44446,55.55556c-15.02926,16.06459 -19.31677,22.63557 -22.22223,26.66667c-1.83755,2.54947 -3.48291,-0.1203 -2.2222,-6.66669c2.26307,-11.7511 19.42868,-38.23552 35.55555,-57.77777c15.03549,-18.21976 22.22223,-24.44444 20,-24.44444c-2.22223,0 -5.95249,6.94896 -8.88889,13.33332c-5.41446,11.77221 -22.64505,28.62563 -26.66665,35.55556c-2.49411,4.29778 -5.66559,10.11003 0,4.44444c5.66555,-5.66555 17.25122,-20.84567 31.11111,-28.88888c8.59555,-4.98819 18.42865,-10.46024 20,-8.88889c1.57135,1.57134 0.45587,6.92551 -2.22223,11.11112c-7.66885,11.98572 -12.69803,22.69261 -17.77777,28.88888c-1.99243,2.43038 -10.92804,9.74862 -13.33334,15.55555c-0.85041,2.05307 -5.46402,5.98544 -6.66666,8.88891c-0.8504,2.05304 -2.22223,4.44443 -4.44446,6.66666c-2.22223,2.22223 -3.5422,5.58444 -8.88888,8.88888c-5.97776,3.69446 -15.64148,5.43375 -24.44446,6.66666c-16.02164,2.24393 -28.88889,4.44446 -35.55554,4.44446c-6.66669,0 -11.11112,4.44442 -13.33335,4.44442c-2.22223,0 -4.61358,-0.8504 -6.66665,0c-2.90348,1.20267 -6.66669,8.88892 -6.66669,11.11112c0,2.22223 0.65088,5.09534 2.22223,6.66669c1.57135,1.57135 2.22223,4.44442 2.22223,6.66665c0,2.22223 2.22223,2.22223 2.22223,4.44446c0,2.2222 0,4.44443 -2.22223,4.44443c-2.22223,0 -4.44446,0 -6.66666,0c-6.66668,0 -12.69806,-4.91483 -17.7778,-11.11112c-7.96973,-9.72152 -22.22223,-22.22219 -33.33333,-33.33331c-4.44444,-4.44446 -5.98539,-7.68625 -8.88888,-8.88892c-2.05306,-0.8504 -6.40337,-4.86727 -13.33333,-8.88888c-8.59554,-4.98819 -12.70886,-5.13382 -20,-11.11112c-6.19627,-5.07972 -11.11112,-6.66664 -13.33334,-8.88887c-2.22223,-2.22222 -4.44445,-4.44445 -8.88889,-11.11111c-4.44444,-6.66667 -7.08003,-8.20566 -11.11111,-11.11112c-2.54949,-1.83757 -1.89495,-4.8291 -4.44445,-6.66667c-4.03109,-2.90544 -6.83581,-5.81624 -8.88888,-6.66665c-5.80695,-2.40532 -7.52638,-10.92803 -13.33333,-13.33335c-4.10614,-1.70082 -8.88889,-6.66665 -11.11112,-8.88888c-2.22222,-2.22223 -3.80915,-4.91484 -8.88889,-11.11112c-3.98486,-4.86076 -7.68622,-8.20764 -8.88888,-11.11111c-1.70082,-4.10613 -3.24179,-3.76319 -4.44445,-6.66666c-0.85041,-2.05307 -2.22222,-8.8889 -6.66667,-13.33334c-2.22222,-2.22222 -4.7651,-8.74254 -6.66666,-13.33333c-2.68923,-6.49237 -2.87309,-7.31755 -4.44444,-8.88889c-1.57135,-1.57135 -4.0543,-2.43975 -6.66668,-6.66667c-1.16829,-1.89033 0,-4.44444 0,-6.66666c0,-4.44445 0,-8.88889 0,-11.11112c0,-2.22222 0,-4.44444 0,-6.66666c0,-2.22222 2.41293,-3.15651 6.66668,-4.44444c7.66854,-2.32186 11.52446,-3.76123 15.55555,-6.66668c2.54948,-1.83757 4.44445,-4.44444 8.88889,-4.44444c4.44444,0 7.14532,1.95791 20,-2.22222c4.72546,-1.53664 5.09532,-2.87309 6.66667,-4.44444c1.57134,-1.57134 5.9854,-1.01957 8.88889,-2.22223c2.05305,-0.8504 6.66667,-2.22222 11.11111,-2.22222c2.22221,0 4.05278,-3.3028 8.88889,-4.44445c8.65109,-2.04224 12.65208,-1.01956 15.55555,-2.22222c2.05306,-0.8504 4.44445,0 13.33333,0c11.11112,0 13.33334,0 15.55556,0c2.22223,0 4.50389,-0.51056 6.66667,0c4.8361,1.14165 8.35796,3.14643 15.55556,6.66667c6.31271,3.08744 11.11111,6.66667 15.55555,6.66667c2.22222,0 2.8731,0.65087 4.44445,2.22222c1.57135,1.57135 -0.51056,4.50389 0,6.66666c1.14164,4.83611 3.42332,6.78557 4.44444,11.11112c1.14165,4.8361 2.87309,7.31752 4.44446,8.88888c3.1427,3.1427 0,6.66668 2.2222,6.66668c2.22222,0 4.44445,4.44444 6.66668,4.44444c4.44443,0 6.66666,0 8.88889,0c4.44442,0 13.33331,0 17.77777,0c6.66665,0 8.88888,0 13.33334,0c4.44443,0 6.96222,0.95665 15.55554,-2.22222c4.6604,-1.72399 5.98542,-5.46401 8.88889,-6.66667c2.05307,-0.85041 4.44446,-4.44445 6.66669,-4.44445c2.22219,0 4.34057,-2.38206 11.11111,-6.66666c10.94934,-6.92909 11.97083,-10.92802 17.77777,-13.33334c2.05307,-0.85041 3.44257,-2.12259 11.11112,-4.44444c2.12686,-0.64396 4.59109,-1.95034 8.88888,-4.44444c6.92993,-4.02161 11.76197,-7.31755 13.33332,-8.8889c3.1427,-3.1427 11.11111,-6.66666 13.33334,-6.66666c4.44446,0 6.66666,-2.22222 8.88888,-2.22222c2.22223,0 6.66669,0 15.55558,0c11.11111,0 17.77777,0 20,0c2.22223,0 7.31753,-1.57136 8.88888,0c3.1427,3.1427 2.12259,5.66479 4.44443,13.33333c1.28793,4.25374 1.01956,5.98542 2.22223,8.88889c1.7008,4.10613 2.03912,5.30415 4.44446,11.11111c0.8504,2.05307 4.44442,15.55555 6.66665,17.77778c4.44446,4.44445 6.66666,4.44445 8.88889,4.44445c2.22223,0 6.83584,0.85039 8.88888,0c2.90348,-1.20266 2.87311,-2.8731 4.44446,-4.44445c1.57135,-1.57135 0,-4.44445 0,-6.66667c0,-2.22222 0.51056,-4.50389 0,-6.66666c-1.14166,-4.83612 -2.39139,-5.81626 -4.44446,-6.66667c-2.90344,-1.20266 -8.88888,-2.22222 -11.11111,-2.22222c-6.66666,0 -13.33332,0 -17.77777,0c-6.66666,0 -8.88889,0 -13.33332,0c-6.66668,0 -13.33334,2.22221 -17.7778,4.44444c-4.44443,2.22222 -10.84125,5.54102 -17.77777,6.66667c-6.58057,1.06788 -9.10641,4.05429 -13.33334,6.66666c-1.89032,1.16828 -4.61359,-0.85041 -6.66666,0c-2.90347,1.20266 -2.22223,4.44445 -6.66666,6.66667c-4.44445,2.22223 -8.88888,6.66667 -13.33334,8.88889c-4.44446,2.22222 -5.98541,5.46401 -8.88888,6.66667c-2.05307,0.85041 -6.21555,2.79222 -8.88889,4.44444c-5.97778,3.69447 -9.2272,2.74362 -13.33334,4.44444c-2.90348,1.20267 -4.61359,1.37183 -6.66666,2.22223c-2.90347,1.20267 -4.61362,3.59403 -6.66669,4.44444c-5.80694,2.40532 -9.74859,6.48357 -15.55554,8.88889c-10.26532,4.25204 -26.66665,0 -40,0c-8.88888,0 -13.33334,0 -17.77777,0c-2.22223,0 -9.00919,1.26073 -15.55557,0c-11.7511,-2.26306 -15.55556,-4.44444 -20,-6.66666c-4.44445,-2.22223 -6.52031,-2.54287 -11.1111,-4.44444c-6.49237,-2.68922 -16.87555,-10.02892 -22.22223,-13.33334c-5.97777,-3.69447 -8.88889,-2.22222 -11.11112,-4.44445c-2.22221,-2.22222 -4.78276,-4.96585 -8.88888,-6.66666c-5.80695,-2.40532 -5.98344,-7.08003 -8.88889,-11.11112c-3.67514,-5.09898 -8.67295,-4.94267 -13.33334,-6.66666c-8.59332,-3.17888 -15.55556,-2.22222 -26.66666,-2.22222c-8.88889,0 -20,0 -24.44445,0c-8.88889,0 -15.96891,3.76121 -20,6.66666c-2.54948,1.83757 -6.27651,2.43975 -8.88889,6.66667c-1.16829,1.89033 0,8.88889 0,17.77778c0,8.88888 0,15.55555 4.44444,20c2.22223,2.22222 6.66668,6.66667 15.55556,6.66667c11.11112,0 26.05178,-1.84748 48.88889,-17.77779c19.37449,-13.51493 31.11111,-24.44444 35.55555,-26.66666c8.8889,-4.44445 19.36,-6.62583 31.11112,-8.88889c4.36424,-0.84047 6.66667,0 4.44444,0c-13.33333,0 -28.88888,0 -48.88888,0c-24.44445,0 -28.88889,0 -24.44445,0c4.44445,0 31.11112,11.11112 31.11112,0c0,-6.66667 -13.33335,0 -28.8889,0c-8.88889,0 -30.97325,5.55176 -44.44445,6.66667c-2.21465,0.18329 4.44445,-2.22222 8.8889,-2.22222c6.66666,0 26.66666,0 46.66666,0c2.22223,0 4.44444,0 8.88889,0c4.44445,0 8.56163,-2.60688 11.11111,-4.44445c4.0311,-2.90545 11.11112,-6.66666 13.33334,-6.66666c4.44445,0 3.08194,-4.26136 8.88889,-6.66667c4.10612,-1.70082 6.66667,0 8.88888,0c2.22223,0 4.44445,0 4.44445,2.22222c0,2.22222 0,4.44445 0,8.88889c0,6.66666 0,13.33333 0,20c0,2.22222 0,6.66666 0,8.88889c0,2.22222 0,6.66667 0,8.88888c0,2.22223 0,6.66667 0,11.11112c0,2.22222 -2.22222,2.22222 -8.88889,2.22222c-15.55555,0 -24.44444,0 -33.33333,0c-8.8889,0 -10.10923,2.12259 -17.77778,4.44445c-4.25374,1.28793 -4.96587,4.78274 -6.66667,8.88888c-1.20266,2.90348 -8.78925,7.88701 -11.1111,15.55556c-0.64397,2.12688 0,6.66667 0,8.88888c0,2.22223 71.11113,-13.33332 75.55555,-17.77777c2.22222,-2.22223 5.94462,-5.28083 6.66666,-2.22223c1.61455,6.8393 -4.96759,8.30173 -20,22.22223c-6.91759,6.40592 -12.48292,13.16419 -13.33333,11.11112c-3.60797,-8.71044 10.86547,-11.6568 40,-24.44446c26.45299,-11.61067 32.03398,-15.13608 33.33333,-13.33333c4.10893,5.70082 -6.08937,11.64456 -26.66666,33.33335c-23.79338,25.07859 -39.58367,48.4293 -44.44444,44.44444c-6.19627,-5.07973 24.3095,-29.06545 53.33333,-51.11112c8.84807,-6.72074 19.77022,-10.90296 17.77777,-13.33334c-5.07974,-6.19626 -10.35699,9.74364 -28.88888,31.11112c-7.28002,8.39393 -7.36939,10.99708 -6.66666,8.8889c3.51364,-10.54093 24.29282,-26.84565 39.99998,-40.00002c24.2139,-20.27855 46.33942,-37.39308 48.88889,-35.55554c4.0311,2.90543 -16.3548,23.55008 -28.88889,35.55554c-23.85745,22.85126 -43.31843,71.03908 -59.99998,93.33336c-1.88278,2.51627 -2.83485,-0.08612 -2.22223,-2.22223c5.77953,-20.15201 36.85097,-38.19566 62.22221,-57.77778c21.18335,-16.34981 25.30417,-31.29419 31.11112,-28.88889c2.05307,0.8504 -0.17462,4.30696 -8.88889,15.55556c-13.60937,17.56735 -30.49777,42.71717 -37.77777,51.1111c-4.11822,4.74833 -6.15558,6.44333 -4.44445,0c4.59848,-17.31592 17.20254,-24.98003 40,-48.88889c17.34982,-18.19568 17.3861,-27.80833 22.22222,-26.66667c2.16279,0.51056 -1.71545,9.15457 -8.88888,22.22223c-18.70606,34.07631 -44.76733,66.46414 -60,91.11111c-6.81226,11.02246 -8.50717,13.68479 -4.44444,8.88889c12.35624,-14.58609 33.33332,-40 57.77778,-64.44445c26.66666,-26.66665 46.37528,-55.24623 68.88889,-82.22222c2.01367,-2.41282 5.68704,-2.04497 4.44442,2.22222c-8.10083,27.81875 -37.65374,56.43268 -55.55554,86.66668c-15.19015,25.65439 -20.10821,42.86471 -24.44446,53.33334c-3.06619,7.40241 6.91895,-35.37845 17.77781,-51.11113c18.20541,-26.37657 34.35006,-48.83813 44.44442,-66.66667c3.46234,-6.11513 2.03138,-9.06461 0,-6.66666c-12.35629,14.58611 -24.81067,42.00916 -46.66665,80c-20.34278,35.36054 -24.95502,42.16278 -24.44446,40c2.28332,-9.67224 10.65308,-24.72268 37.77777,-51.11111c30.59705,-29.76651 63.26944,-52.1306 77.7778,-55.55556c2.16278,-0.51056 1.22577,1.79035 -2.22223,11.11112c-3.17889,8.59332 -10.42303,36.3421 -17.77777,57.77777c-1.61264,4.7001 -2.90545,1.80888 0,-2.22222c3.67514,-5.09897 14.24646,-40.68357 24.44443,-33.33334c4.0311,2.90544 -13.22641,20.07254 -17.77777,26.66667c-10.85889,15.73267 -30.93399,35.80782 -46.66666,46.66667c-13.18829,9.10273 -22.88598,10.7135 -26.66668,17.77777c-1.04859,1.95929 0,4.44446 0,6.66669c0,2.2222 0,6.66666 0,11.11109c0,4.44445 -2.22223,8.88891 0,8.88891c2.22222,0 -1.40101,-7.1896 6.66668,-26.66669c9.50788,-22.95397 26.19748,-47.88085 42.22223,-77.77777c15.03107,-28.04303 20.99732,-46.27612 26.66666,-62.22223c5.41946,-15.24328 8.88888,-22.22221 8.88888,-24.44444c0,-2.22223 0,-4.44444 0,-8.88889c0,-2.22222 4.44446,-8.88889 4.44446,-11.11111c0,-4.44444 -3.70346,-14.51915 -22.22223,-4.44444c-12.49921,6.79991 -37.39889,21.87002 -60,40c-12.25717,9.83237 -18.20062,21.95894 -22.22223,28.88888c-2.49408,4.29778 -3.24179,8.20763 -4.44446,11.11112c-1.7008,4.10612 -4.90399,2.63855 -8.88888,-2.22223c-5.07971,-6.19626 -23.27533,-23.48663 -40,-37.77777c-22.97896,-19.63538 -48.88889,-40 -48.88889,-46.66667c0,-4.44445 0.51056,-6.72612 0,-8.88889c-1.14166,-4.83611 -9.13093,-2.13787 -20,-4.44444c-21.40957,-4.54342 -33.33332,-11.11112 -42.22222,-15.55556c-4.44445,-2.22222 -5.9854,-3.24179 -8.88889,-4.44445c-2.05306,-0.85041 -4.44444,0 -6.66666,0c-4.44445,0 -11.11112,0 -17.77778,0c-8.8889,0 -18.28525,-0.32899 -24.44445,2.22223c-5.80695,2.40531 -11.11111,6.66666 -13.33333,6.66666c-2.22222,0 -6.33478,1.05394 -4.44445,2.22223c4.22692,2.61238 7.00498,-2.74363 11.11111,-4.44445c2.90348,-1.20266 6.66667,-4.44444 11.11112,-4.44444c13.33333,0 26.66666,0 44.44444,0c35.55556,0 51.11112,0 53.33334,0c2.22222,0 6.81556,-1.14075 11.1111,0c17.31594,4.59849 30.56954,18.57799 46.66668,28.88888c15.08654,9.66357 26.66665,11.11112 37.77777,11.11112c20,0 33.45224,-3.42332 37.7778,-4.44445c4.83609,-1.14166 6.01211,-5.21376 11.11108,-8.88889c8.0622,-5.81091 17.7778,-8.88889 22.22223,-11.11111c4.44446,-2.22223 7.38596,-1.15593 11.11112,-4.44444c6.00668,-5.30259 7.74725,-8.49723 8.88888,-13.33334c0.51056,-2.16277 2.22223,-2.22222 2.22223,-4.44444c0,-4.44445 -6.66666,-4.44445 -13.33334,-4.44445c-13.33332,0 -29.28217,-1.45515 -40,2.22223c-4.70008,1.61263 -8.20765,5.464 -11.11112,6.66666c-2.05304,0.85039 -3.08194,2.03913 -8.88888,4.44445c-2.05304,0.85039 -4.44443,2.22221 -8.88889,6.66666c-4.44443,4.44444 -9.00778,7.86778 -13.33331,8.8889c-4.83612,1.14164 -8.88892,4.44444 -13.33335,4.44444c-4.44445,0 -13.33334,0 -33.33334,0c-11.1111,0 -20,0 -22.22221,0l-2.22223,0l-2.22222,2.22222l0,2.22222" id="svg_16" stroke-width="48.5" stroke="#ff8585" fill="none"/>
  <path d="m461.00003,84.22916c-4.44443,6.66667 -5.55011,22.05732 -6.66666,33.33334c-0.87588,8.84563 0,15.55556 0,17.77777c0,4.44444 -0.8504,6.49751 0,4.44444c1.20267,-2.90347 1.15436,-11.19719 2.22223,-17.77777c1.12564,-6.93654 2.22223,-13.33333 2.22223,-15.55555c0,-2.22222 1.02112,-4.32555 0,0c-1.14166,4.83611 -2.22223,8.88889 -2.22223,11.11111c0,2.22222 0,4.44444 0,2.22222c0,-2.22222 0,-6.66667 0,-11.11111c0,-2.22222 0,-4.44445 -2.22223,-4.44445l0,2.22223l0,2.22222" id="svg_17" stroke-width="48.5" stroke="#ff8585" fill="none"/>
  <polyline stroke-linecap="round" id="svg_18" points="289.8889227598215,164.229165426029 287.6667004626219,164.229165426029 " stroke-width="48.5" stroke="#ff8585" fill="none"/>
  <path fill="none" stroke-width="1.5" stroke-opacity="0" id="svg_3" d="m15.99999,12.99993c-0.33333,0.66667 -0.84005,1.10789 -1.33333,1.66667c-0.79539,0.901 -1.43097,1.2357 -1.66667,1c-0.4714,-0.47141 0,-1.33334 0.33333,-2c0.33334,-0.66667 0.41155,-1.05075 0.66667,-1.66667c0.1804,-0.43552 0.40992,0.00892 0.33333,0.33333c-0.34249,1.45083 -0.77916,3.10333 -1.33333,4c-0.49566,0.802 -0.76915,0.93799 -0.33333,0.33334c0.55127,-0.76485 0.94932,-0.69324 1.66666,-2c0.93531,-1.70382 1.33334,-1.66667 1.33334,-2l0,0.33333l0,0.33333l-0.33334,0.66667" stroke="#ff8585"/>
  <path fill="none" stroke="#ff8585" stroke-width="1.5" stroke-opacity="null" fill-opacity="0" id="svg_22" d="m9.82039,18.44655c-0.38835,-0.58253 -0.69194,-0.71893 -1.16505,-1.74758c-0.25658,-0.55786 -0.32865,-1.39534 -0.58252,-1.74757c-0.16056,-0.22277 -0.47744,-0.71717 -0.58252,-0.97087c-0.07431,-0.1794 -0.04462,0.19937 0,0.38835c0.19951,0.84515 0.523,1.65848 0.77669,1.55339c0.17939,-0.0743 -0.47743,-0.52299 -0.58252,-0.77669c-0.14861,-0.35879 -0.16008,-0.40736 -0.38835,-0.7767c-0.10208,-0.16518 -0.03612,-0.32865 -0.38835,-0.58253c-0.22277,-0.16056 -0.21318,-0.7426 -0.58252,-0.97087c-0.16518,-0.10208 -0.16558,-0.42196 -0.38835,-0.58252c-0.35223,-0.25388 -0.67161,-0.52301 -0.7767,-0.7767c-0.07431,-0.1794 -0.19418,-0.58253 -0.38835,-0.7767c-0.19418,-0.19418 -0.11987,-0.40313 -0.19418,-0.58252c-0.10508,-0.2537 -0.09209,-0.41735 -0.19417,-0.58253c-0.22827,-0.36935 -0.32865,-0.42447 -0.58252,-0.77669c-0.32113,-0.44555 -0.32865,-0.61865 -0.58253,-0.97088c-0.16056,-0.22277 -0.38835,-0.38835 -0.38835,-0.58252c0,-0.19418 0,-0.38835 0,-0.58253c0,-0.38835 0,-0.58253 0,-0.7767c0,-0.38835 -0.0743,-0.5973 0,-0.7767c0.10509,-0.2537 0.38835,-0.38835 0.58253,-0.58252c0.19417,-0.19417 0.19417,-0.38835 0.38835,-0.38835c0.19417,0 0.44522,-0.05688 0.58252,-0.19418c0.1373,-0.1373 0.35426,-0.01901 0.58252,-0.38835c0.10209,-0.16517 0.15996,-0.28859 0.58253,-0.38834c0.18898,-0.04461 0.38835,0 0.58252,0c0.19418,0 0.38835,0 0.58253,0c0.19417,0 -0.10979,0.41766 0.38835,0.77669c0.15752,0.11354 0.19417,0.19418 0.19417,0.38836c0,0.38834 0.11987,0.59729 0.19417,0.77669c0.10509,0.2537 0.28327,0.32883 0.38835,0.58253c0.07431,0.1794 0.19418,0.58252 0.38835,0.58252c0.19418,0 0.38835,0 0.58253,0c0.19417,0 0.38835,0 0.38835,-0.19418c0,-0.19417 0,-0.97087 0,-1.16505c0,-0.19417 -0.19418,-0.38834 -0.38835,-0.58252c-0.19418,-0.19417 -0.38835,-0.19417 -0.58253,-0.19417c-0.38835,0 -0.38835,0 -0.77669,0c-0.19418,0 -0.38835,0 -0.7767,0c-0.19418,0 -0.40313,0.07431 -0.58253,0c-0.2537,-0.10509 -0.38835,-0.19418 -0.7767,-0.19418c-0.19417,0 -0.5973,-0.07431 -0.77669,0c-0.25371,0.10509 -0.20896,0.31404 -0.38835,0.38835c-0.25371,0.10509 -0.38835,0.38835 -0.38835,0.7767c0,0.19418 -0.19418,0.38835 -0.19418,0.7767c0,0.19417 0,0.38835 0,0.7767c0,0.38835 0.10208,0.61152 0,0.77669c-0.22827,0.36934 -0.38835,0.58253 -0.38835,1.16506c0,0.19417 0,0.58252 0,0.77669c0,0.38835 0,0.58253 0,0.7767c0,0.38835 -0.17517,0.74261 0.19418,0.97088c0.16517,0.10208 0.19417,-0.19418 0.19417,-0.58253c0,-0.38835 0,-0.7767 0,-0.97087c0,-0.19418 0.38834,-0.97087 0,-0.97087c-0.19418,0 0,0.38834 0,1.16504c0,0.38835 -0.08922,0.59291 0,0.97087c0.09976,0.42258 0.38835,0.58253 0.38835,0.97088c0,0.19417 0.05687,0.63939 0.19418,0.7767c0.1373,0.1373 0.29912,0.59292 0.38835,0.97087c0.09975,0.42258 0.19417,0.7767 0.38834,0.7767c0.19418,0 0.29053,-1.34131 0.38835,-2.13592c0.0949,-0.77088 0,-1.16505 0,-1.35922c0,-0.58252 0,-0.97088 0,-1.16505c0,-0.58253 0,-0.97087 0,-1.16505c0,-0.19417 -0.04461,-0.58772 0,-0.7767c0.09976,-0.42257 0.19418,-0.58252 0.19418,-0.97087c0,-0.19418 -0.14861,-0.41792 0,-0.7767c0.10509,-0.2537 0.38835,-0.38835 0.38835,-0.58252c0,-0.19418 0.1373,-0.6394 0,-0.7767c-0.1373,-0.1373 -0.50822,0.01478 -0.58253,0.19417c-0.10508,0.2537 -0.32864,0.81282 -0.58252,1.16505c-0.16056,0.22277 -0.19417,0.58252 -0.19417,0.97087c0,0.38835 -0.09442,0.5483 -0.19418,0.97087c-0.08922,0.37796 -0.19417,0.97088 0,0.97088c0.38835,0 0,-0.97088 0,-1.35923c0,-0.58252 -0.04461,-1.17024 0,-1.35922c0.09976,-0.42257 0.34374,-0.58771 0.38835,-0.77669c0.09976,-0.42258 0.58253,-0.58253 0.38835,-0.58253c-0.19418,0 0,0.97088 0,1.74757c0,1.16505 0,1.35923 0,1.5534c0,0.38835 0.19417,0 0.38835,-0.38835c0.19417,-0.38834 0.32882,-0.86578 0.58252,-0.97087c0.1794,-0.07431 0.19418,0.19417 0.19418,0.77669c0,0.97088 0,2.13593 0,2.52428c0,0.7767 0.86579,-2.27058 0.97087,-2.52428c0.22292,-0.53817 0.28999,-0.94728 0.38835,-1.55339c0.03111,-0.19166 0,-0.38835 0,0.19417c0,0.7767 0.02105,1.40788 -0.38835,2.71845c-0.38838,1.24332 -0.77669,1.55339 -0.58252,1.55339c0.38834,0 0,-1.35922 0,-2.13591c0,-1.5534 0,-2.52427 0,-2.91262c0,-0.38836 0.19417,-0.7767 0,-0.7767c-0.7767,0 0,0.97087 0,1.94174c0,1.16505 -0.26845,2.94051 -0.7767,4.85437c-0.47281,1.7804 -0.7767,2.13592 -0.58252,2.13592c1.16504,0 0.28471,-2.28278 1.16504,-4.07767c0.6512,-1.32769 0.66692,-2.35941 1.16505,-2.71844c0.15752,-0.11354 0.19418,-0.19418 0.19418,0.19417c0,0.19418 0,0.7767 0,1.74758c0,1.35922 0,1.94174 0,2.33009c0,0.19418 0.0721,-0.53335 0.58252,-1.35922c0.6848,-1.10803 0.90269,-2.75646 1.35922,-3.49515c0.51042,-0.82587 1.10817,-1.41609 0.97088,-1.55339c-0.1373,-0.1373 -0.77286,1.06122 -1.5534,2.71845c-0.52328,1.111 -1.21004,2.70439 -1.5534,3.88349c-0.22384,0.76867 -0.19417,0.97087 -0.19417,0.77669c0,-0.38834 -0.17845,-0.99164 0,-1.74756c0.19951,-0.84515 0.7767,-1.94175 0.97087,-2.3301c0.19418,-0.38836 0.2693,-1.5694 0.7767,-1.35923c0.17939,0.07431 0,2.13593 0,2.91262c0,0.19418 -0.1353,0.82149 0,0.58253c0.39446,-0.69668 0.81438,-1.14341 1.35922,-2.13592c0.41787,-0.76123 0.52533,-1.0381 0.97088,-1.35923c0.35223,-0.25387 0.67694,-0.15995 0.77669,-0.58252c0.04462,-0.18898 0.11987,-0.20895 0.19418,-0.38835c0.10509,-0.2537 0.38835,-0.38835 0.38835,-0.58252c0,-0.19418 -0.1373,-0.44522 0,-0.58252c0.1373,-0.1373 0.38835,-0.19418 0.58252,-0.19418c0.19418,0 0.38835,0 0.7767,0c0.19418,0 0.58253,0 0.7767,0c0.19418,0 0.38835,0 0.58252,0.19418c0.19418,0.19417 0.38835,0.19417 0.58253,0.19417c0.19417,0 0.20895,0.11986 0.38835,0.19417c0.2537,0.10509 0.41735,0.48045 0.58252,0.58253c0.36934,0.22826 0.25105,0.44522 0.38835,0.58252c0.1373,0.13731 0.19418,0.19417 0.19418,0.38835c0,0.19417 0.09441,0.35412 0.19417,0.7767c0.04461,0.18898 0,0.38835 0,0.58252c0,0.19418 0.19418,0.19418 0.19418,0.58253c0,0.19417 0,0.38835 0,0.58252c0,0.19417 0,0.38835 0,0.58253c0,0.19417 0.10208,0.41735 0,0.58252c-0.22827,0.36935 -0.47744,0.32882 -0.58253,0.58252c-0.07431,0.1794 -0.28326,0.13465 -0.38835,0.38835c-0.07431,0.1794 -0.23029,0.32866 -0.58252,0.58253c-0.22277,0.16056 -0.25105,0.25104 -0.38835,0.38834c-0.1373,0.1373 -0.38835,0 -0.58252,0c-0.19418,0 -0.4316,0.14058 -1.16505,0.77671c-0.41491,0.35985 -0.40313,0.50821 -0.58253,0.58252c-0.2537,0.10508 -0.19417,0.38835 -0.19417,0.58252c0,0.19418 -0.11987,0.40313 -0.19418,0.58253c-0.10508,0.25369 -0.38835,0.38835 -0.38835,0.58252c0,0.19418 -0.05687,0.25105 -0.19417,0.38835c-0.1373,0.13731 -0.28326,0.32883 -0.38835,0.58252c-0.07431,0.1794 -0.13465,0.47744 -0.38835,0.58253c-0.1794,0.07431 -0.44522,0.05688 -0.58253,0.19418c-0.1373,0.1373 0.10208,0.41735 0,0.58252c-0.22826,0.36934 -0.44522,0.25104 -0.58252,0.38835c-0.1373,0.1373 -0.05687,0.25104 -0.19417,0.38835c-0.13731,0.1373 -0.19418,-0.19418 -0.19418,-0.38835c0,-0.7767 -0.09961,-1.28039 -0.38835,-1.74758c-0.32281,-0.52232 -0.11058,-0.80252 -0.38835,-1.55339c-0.15064,-0.40722 -0.37235,-0.65764 -0.58252,-1.16505c-0.07431,-0.17939 -0.45557,-0.52533 -0.7767,-0.97087c-0.25388,-0.35224 -0.38835,-0.58253 -0.58252,-0.7767c-0.19418,-0.19418 -0.61865,-0.32865 -0.97088,-0.58253c-0.22277,-0.16056 -0.40313,-0.26848 -0.58252,-0.19417c-0.2537,0.10508 -0.19418,0.7767 -0.19418,1.74757c0,0.58253 0,1.16505 0,1.35922c0,0.19418 0.19418,0.38836 0.38835,0.38836c0.19418,0 0.38835,0 0.38835,-0.38836c0,-1.16504 0.57719,-1.8733 0.7767,-2.71844c0.04461,-0.18898 0.19418,-0.58253 0,-0.58253c-0.38835,0 0,0.97088 0,1.74758c0,0.58252 -0.15551,1.37175 0,2.33009c0.09836,0.60611 0.32882,1.07597 0.58253,0.97088c0.17939,-0.07431 0.42541,-0.57373 0.77669,-2.13593c0.21722,-0.96598 0.27628,-2.02874 0.58253,-2.52427c0.22826,-0.36934 0.38835,0 0.38835,0.97088c0,0.7767 0,1.74757 0,2.13592c0,0.38835 0,0.19418 0,0c0,-1.5534 0,-2.13592 0,-1.94175c0,0.38835 0,1.35922 0,2.3301c0,0.58252 0,0.7767 0,0.38835c0,-0.38835 0,-0.97088 0,-2.13592c0,-0.97088 0,-1.74758 0,-2.13593c0,-0.38834 0.19417,-0.77669 0,-0.77669c-0.19418,0 -0.18325,0.3237 -0.58253,1.74757c-0.37071,1.32203 -0.56148,3.34962 -0.97087,4.66019c-0.12946,0.41443 -0.19417,0.58252 -0.19417,0.19417c0,-0.38835 0,-1.94174 0,-4.07766c0,-0.7767 0,-1.16505 0,-1.35923c0,-0.19417 0.19417,-0.19417 0.19417,1.5534c0,1.16505 0,2.3301 0,3.30097c0,0.58252 -0.19418,0.97088 0,0.97088c0.58253,0 0.18884,-1.8733 0.38835,-2.71845c0.13384,-0.56694 0,-0.97087 0,-0.58253c0,0.58253 0,1.5534 0,3.1068c0,0.38835 0.01478,0.89656 0.19418,0.97087c0.2537,0.10509 0.2377,-0.36948 0.38834,-0.77669c0.27777,-0.75088 0.30792,-1.47297 0.58253,-1.74758c0.1373,-0.1373 0.17673,0.2569 0.38835,0.58253c1.04209,1.60353 3.00717,-0.01563 3.49514,-0.38835c0.55638,-0.42497 0.58253,-0.7767 0.97088,-0.97087c0.38835,-0.19418 0.44522,-0.25106 0.58252,-0.38835c0.1373,-0.13731 0.49344,-0.13466 0.38835,-0.38836c-0.07431,-0.17939 -0.38835,0 -0.58252,0c-0.19418,0 -0.59249,0.13278 -0.7767,0.19418c-0.92106,0.30702 -1.17983,0.89656 -1.35922,0.97087c-0.25371,0.10509 -0.25158,-0.77953 -0.19418,-1.35922c0.09756,-0.98528 0.38002,-2.07965 0.19418,-2.13592c-0.67007,-0.20288 -0.62054,1.3382 -1.35923,2.71845c-0.40975,0.76562 -0.58252,1.35922 -0.58252,0.97087c0,-0.19418 0,-0.38835 0,-1.74757c0,-1.74757 0,-3.8835 0,-5.63107c0,-0.97087 -0.37235,-1.2841 -0.58252,-0.7767c-0.44585,1.07637 -0.38835,3.68932 -0.58253,4.07767c-0.38835,0.7767 -0.32882,1.65849 -0.58252,1.5534c-0.1794,-0.07431 -0.32854,-0.72341 0.38835,-1.94175c0.27852,-0.47334 0.58252,-0.97087 0.58252,-1.16505c0,-0.19417 0.14437,-0.42776 0,-0.19417c-0.32282,0.52233 -0.67914,1.53898 -0.7767,2.52427c-0.03826,0.38645 -0.05952,-0.08909 0.19418,-0.19417c0.17939,-0.07431 0.44522,-0.33148 0.58252,-0.19418c0.1373,0.13731 0,1.5534 0,2.52427c0,1.5534 -0.08043,2.13592 0.19418,2.13592c0.54921,0 0.5362,-1.58094 1.35922,-2.91262c0.73614,-1.1911 1.35922,-1.94175 1.16505,-1.94175c-0.19418,0 0.06882,0.97332 0,1.94175c-0.09733,1.36957 -0.38835,2.13592 -0.38835,2.3301c0,0.19417 -0.13951,-0.20046 0,-1.74758c0.19496,-2.16216 0.97087,-3.10679 0.58252,-3.10679c-0.19418,0 -0.61046,1.1469 -1.35922,2.3301c-1.21091,1.91347 -1.54729,3.57515 -1.94175,4.27184c-0.1353,0.23896 -0.23322,0.19021 -0.19417,0c0.29733,-1.44859 2.04459,-3.60016 3.88349,-5.82524c0.61849,-0.74838 0.86579,-1.10552 0.97087,-1.35922c0.07431,-0.1794 0.25105,-0.25106 0.38835,-0.38835c0.1373,-0.13731 0.1373,-0.33149 0,-0.19418c-0.1373,0.13731 -0.22219,0.95809 -0.38835,1.35922c-0.23498,0.5673 -0.1373,0.914 0,0.77671c0.13731,-0.13731 0.33284,-0.42946 0.7767,-0.97088c0.52229,-0.63709 0.91135,-1.07596 1.16505,-0.97087c0.1794,0.07431 -0.04556,0.22374 -0.19418,0.58252c-0.10508,0.2537 -0.51698,0.32815 -0.19417,-0.19417c0.14437,-0.23359 0.47744,-0.71718 0.58252,-0.97087c0.22293,-0.53819 0.58252,-1.5534 0.19418,-1.5534c-0.19417,0 -0.01631,0.38061 -0.19418,0.77669c-0.42836,0.9539 -0.52299,1.65849 -0.77669,1.5534c-0.1794,-0.07431 0,-0.38835 0,-1.16505c0,-0.58252 0,-0.7767 0,-0.58252c0,0.19417 -0.38835,1.35922 -0.38835,1.74757c0,0.58253 -1.34225,1.51339 -0.38835,1.94175c0.39608,0.17786 0.10622,-0.60435 0.38835,-1.5534c0.29796,-1.00232 0.77669,-1.94175 0.77669,-2.3301c0,-0.38834 0,-0.58252 0,-0.77669c0,-0.19418 -0.35683,-0.41986 -0.97087,0.19417c-0.92105,0.92105 -0.9866,2.1567 -1.16505,2.91262c-0.09975,0.42257 0.18547,-0.10663 0.38835,-0.7767c0.16881,-0.55753 0.50091,-1.77804 0.97088,-2.91262c0.16615,-0.40113 0.77669,-1.74757 0.38835,-1.74757c-0.19417,0 -0.08076,0.53613 -0.38835,1.16505c-0.53956,1.1032 -0.7767,1.94174 -1.16505,2.71845c-0.19418,0.38835 -0.13926,0.23667 0,0c0.71688,-1.21836 0.58252,-2.33011 0.58252,-2.52427c0,-0.19418 0.10208,-0.35936 0,-0.19418c-0.22827,0.36934 -0.6043,0.56666 -1.16505,1.35922c-0.40436,0.57152 -0.96048,1.27 -0.58252,1.35922c0.42257,0.09976 0.46999,-0.79336 0.58252,-1.16504c0.20288,-0.67007 0.58253,-0.97088 0.58253,-1.35922c0,-0.19418 -0.42851,-0.23056 -0.7767,0.19416c-0.44387,0.54142 -1.12892,1.10535 -0.7767,1.35923c0.22276,0.16056 0.42603,-0.36671 0.97087,-1.35923c0.20894,-0.3806 0.33148,-0.63939 0.19418,-0.77669c-0.1373,-0.1373 -0.44635,-0.20417 -0.7767,0c-0.36934,0.22826 -0.7446,1.18165 -1.35922,2.33009c-0.73869,1.38025 -1.74466,2.86517 -1.35923,2.91262c0.7946,0.09783 0.21716,-1.34815 0.58253,-2.13592c0.6222,-1.34152 0.7767,-1.74757 0.7767,-1.55339c0,0.97087 0,1.94175 0,2.71844c0,0.38835 -0.17939,0.70239 0,0.7767c0.25369,0.10508 1.37985,-1.86269 2.33009,-3.10679c0.33337,-0.43646 0.38835,-0.77671 0.38835,-0.58253c0,0.38835 0.20733,1.58158 0,2.33009c-0.30223,1.09115 -0.74247,2.23568 -1.16505,2.13593c-0.37796,-0.08923 -0.22292,-1.20939 0,-1.74758c0.10509,-0.2537 0.1794,-0.46266 0,-0.38835c-0.7611,0.31527 -0.60561,1.01271 -0.97087,2.13593c-0.40281,1.23871 -0.7767,1.5534 -0.58252,1.5534c0.19417,0 0.5826,-0.63914 1.35922,-1.94175c0.53548,-0.89815 0.65765,-1.73158 1.16505,-1.94175c0.17939,-0.07431 0.24804,0.58628 0.19417,0.97088c-0.19607,1.39994 -0.68214,1.66873 -0.97087,2.13591c-0.32282,0.52233 -0.23498,0.37313 0,-0.19417c0.16615,-0.40113 0.32882,-1.07596 0.58252,-0.97087c0.35879,0.14861 -0.38301,1.0966 -0.58252,1.94175c-0.13384,0.56694 -0.19418,0.97087 -0.19418,0.77669c0,-0.58252 0.64805,-1.22524 0.97088,-1.74757c0.14436,-0.23359 0.38835,-0.38835 0.38835,-0.19417c0,0.38834 0,0.58252 -0.38835,1.35922c-0.38835,0.7767 -0.67834,0.94729 -0.7767,1.5534c-0.0311,0.19166 -0.0536,-0.04325 0.58252,-0.7767c0.35984,-0.41491 0.60153,-1.19914 0.97088,-0.97087c0.16517,0.10208 -0.38111,0.35408 0,-1.74758c0.29601,-1.63241 0.55364,-2.93859 0.7767,-3.88349c0.09975,-0.42258 0.19417,-1.16505 0.19417,-1.35922c0,-0.58253 0,-0.77671 0,-0.97088c0,-0.19417 0,-0.38835 0,-0.58252c0,-0.19418 0,-0.58253 0,-0.97087c0,-0.19418 -0.19417,-0.19418 -0.38835,-0.19418c-0.19417,0 -0.42447,-0.0597 -0.7767,0.19418c-0.22277,0.16056 -0.88728,1.38505 -1.16505,2.13592c-0.15064,0.40721 -0.56774,0.89656 -0.38835,0.97087c0.2537,0.10508 0.2099,-0.40912 0.38835,-1.16505c0.09976,-0.42258 0.25105,-0.52565 0.38835,-0.38835c0.1373,0.1373 0.25105,-0.05687 0.38835,-0.19417c0.13731,-0.13731 -0.19417,-0.19418 -0.38835,-0.19418c-0.19417,0 -0.38835,0.19418 -0.38835,0.38835c0,0.19417 -0.1373,0.52565 0,0.38835c0.13731,-0.13731 0.46878,-0.30792 0.19418,-0.58252c-0.27461,-0.27461 -0.69627,-0.27461 -0.97088,0c-0.13729,0.1373 -0.32865,0.42446 -0.58252,0.77669c-0.16056,0.22278 -0.38835,0.58253 -0.58252,0.7767c-0.19418,0.19418 -0.38835,0.58253 -0.58253,0.97088c-0.19417,0.38834 -0.28859,0.54829 -0.38835,0.97087c-0.04461,0.18898 0,0.38835 -0.19417,0.58253c-0.19418,0.19417 -0.44522,0.25104 -0.58253,0.38834c-0.1373,0.13731 -0.19417,0.19418 -0.38835,0.19418c-0.19417,0 -0.38835,0 -0.58252,0c-0.19417,0 -0.7767,0 -0.97087,-0.19418c-0.58252,-0.58252 -2.30521,-1.95913 -2.71845,-2.52427c-0.73387,-1.00363 -1.25413,-1.2997 -1.35922,-1.5534c-0.07431,-0.17939 -0.08909,-0.32882 -0.19418,-0.58252c-0.0743,-0.17939 0,-0.38835 0,-0.58252c0,-0.19418 0,-0.38835 0.19418,-0.38835c0.38835,0 0.61864,-0.0597 0.97087,0.19417c0.22277,0.16057 0.38835,0.19418 0.7767,0.19418c0.38835,0 0.58253,0 0.58253,0.19417c0,0.19418 -0.04462,0.39355 0,0.58253c0.09975,0.42257 0.28859,0.54829 0.38834,0.97087c0.08923,0.37796 0,0.7767 0,0.97087c0,0.38835 0.38835,0.77671 0.38835,1.5534c0,0.58253 0,0.97087 0,1.74757c0,0.38836 0,0.7767 0,1.35923c0,0.77669 0.51135,2.52863 0.58253,3.10679c0.09782,0.7946 0.13447,1.20117 0.38835,1.5534c0.32112,0.44553 0.38835,0.58252 0.58252,0.58252c0.7767,0 1.17024,-0.34374 1.35922,-0.38835c0.42257,-0.09975 0.81282,-0.32864 1.16505,-0.58252c0.44554,-0.32113 0.96554,-0.51408 1.16505,-1.35922c0.04461,-0.18898 0.19418,-0.38835 0.38835,-0.77671l0,-0.19416l0,-0.19418"/>
  <path fill="none" stroke="#ff8585" stroke-width="1.5" stroke-opacity="null" fill-opacity="0" id="svg_23" d="m8.26699,4.85432c0,0.19417 0,0.38835 0,0.58252c0,0.19418 0,0.58252 0,0.7767c0,0.19417 0,0.38835 0.19418,0.38835c0.19417,0 0.52032,-0.19919 0.58252,-0.58253c0.09836,-0.6061 0.19418,-0.97087 0.19418,-1.16504c0,-0.19418 0.0743,-0.40313 0,-0.58252c-0.10509,-0.2537 -1.13646,-0.16057 -1.35923,0c-0.35223,0.25387 -0.58252,0.38834 -0.58252,0.58252c0,0.19417 0,0.58252 0,0.7767c0,0.19417 0,0.38834 0,0.58252c0,0.19417 -0.1373,0.44522 0,0.58253c0.1373,0.13729 0.38835,0 0.58252,-0.19418c0.19418,-0.19418 0.19418,-0.38835 0.19418,-0.58253c0,-0.19417 0,-0.38834 0,-0.58252c0,-0.19417 0,-0.38835 0,-0.58252c0,-0.38835 -0.07431,-0.5973 0,-0.7767c0.10509,-0.2537 0.79148,-0.26849 0.97087,-0.19418c0.50741,0.21018 0.47744,0.71718 0.58253,0.97088c0.0743,0.17939 0,0.58252 0.19417,0.58252c0.19418,0 -0.25104,-0.44522 -0.38835,-0.58252c-0.1373,-0.1373 -0.44522,-0.05687 -0.58252,-0.19418c-0.1373,-0.1373 -0.7767,-0.19417 -0.7767,0c0,0.19418 0,0.58253 0.38835,1.16505c0.38835,0.58252 0.50209,1.08462 0.7767,1.35923c0.1373,0.13729 0.41945,-0.00251 0.38835,-0.19418c-0.09836,-0.60611 -0.38835,-0.7767 -0.7767,-1.16505c-0.19418,-0.19417 -0.31404,-0.5973 -0.38835,-0.7767c-0.10509,-0.2537 -0.20896,-0.31405 -0.38835,-0.38835c-0.2537,-0.10508 -0.19418,0 0,0.19417l0,0.19418"/>
 </g>
</svg>