<?xml version="1.0" standalone="no"?>
<!DOCTYPE svg PUBLIC "-//W3C//DTD SVG 20010904//EN"
 "http://www.w3.org/TR/2001/REC-SVG-20010904/DTD/svg10.dtd">
<svg version="1.0" xmlns="http://www.w3.org/2000/svg"
 width="865.000000pt" height="1280.000000pt" viewBox="0 0 865.000000 1280.000000"
 preserveAspectRatio="xMidYMid meet">
<metadata>
Created by potrace 1.15, written by Peter Selinger 2001-2017
</metadata>
<g transform="translate(0.000000,1280.000000) scale(0.100000,-0.100000)"
fill="#ffffff" stroke="none">
<path d="M4101 12789 c-131 -14 -318 -55 -453 -99 -113 -37 -403 -168 -394
-178 2 -2 65 15 140 37 75 23 197 59 271 81 74 22 195 58 268 79 72 22 165 49
205 61 65 19 93 32 60 29 -7 -1 -51 -6 -97 -10z"/>
<path d="M4420 12764 c-1066 -304 -1388 -401 -1433 -432 -52 -35 -262 -235
-250 -239 5 -2 184 46 397 107 637 182 1804 496 1811 488 3 -2 -141 -44 -318
-92 -409 -113 -1229 -349 -1637 -473 -301 -91 -316 -96 -346 -131 -18 -21 -29
-38 -25 -40 4 -1 135 36 290 83 156 47 285 84 287 83 1 -2 -136 -50 -306 -107
l-310 -102 -55 -85 c-59 -89 -72 -114 -60 -114 5 0 116 32 248 71 131 38 241
68 243 66 2 -2 -113 -39 -257 -82 -238 -72 -262 -81 -275 -106 -16 -32 -18
-53 -5 -45 17 11 793 246 807 245 5 0 -182 -65 -416 -143 l-425 -142 -23 -48
c-13 -27 -21 -50 -19 -52 2 -2 142 39 313 92 717 221 2106 625 2769 805 66 18
122 34 125 37 8 6 -44 42 -60 42 -20 0 -731 -198 -1224 -341 -208 -60 -380
-108 -382 -106 -2 2 33 15 79 29 45 15 318 101 607 193 289 91 602 187 695
212 94 25 171 47 173 48 2 2 -26 20 -62 40 -54 30 -72 35 -98 30 -166 -35
-1593 -428 -2222 -611 -235 -69 -431 -122 -434 -119 -3 3 -2 5 2 5 4 0 125 36
269 79 639 193 1272 379 1870 550 l478 137 -36 17 c-20 9 -43 17 -52 17 -16 0
-698 -194 -1042 -296 -101 -30 -185 -53 -187 -51 -3 3 402 134 989 318 92 29
167 56 167 60 0 3 -21 12 -47 19 -27 6 -57 16 -68 21 -63 28 -371 90 -433 88
-15 -1 -65 -12 -112 -25z m-1405 -904 c-11 -5 -27 -9 -35 -9 -9 0 -8 4 5 9 11
5 27 9 35 9 9 0 8 -4 -5 -9z m-435 -55 c-19 -7 -42 -13 -50 -13 -8 0 1 6 20
13 19 7 42 13 50 13 8 0 -1 -6 -20 -13z"/>
<path d="M5590 12340 c-14 -5 -182 -54 -375 -110 -696 -201 -1494 -444 -2195
-667 -217 -69 -471 -149 -564 -178 l-170 -52 -12 -37 c-12 -34 -12 -37 4 -32
147 46 1439 369 1453 364 5 -2 -64 -23 -153 -47 -309 -83 -1327 -376 -1334
-384 -1 -1 -5 -16 -8 -34 l-7 -32 63 20 c35 11 322 94 638 185 316 91 584 167
595 171 11 3 18 3 15 0 -3 -3 -116 -40 -250 -82 -451 -141 -1055 -337 -1067
-347 -12 -10 -19 -58 -8 -58 4 0 141 44 515 165 482 156 1413 443 2060 634
559 165 724 210 905 246 99 20 186 38 194 41 11 4 5 15 -21 41 l-36 36 -164
-46 c-89 -25 -345 -84 -568 -132 -463 -98 -1201 -265 -1464 -331 -191 -48
-255 -55 -109 -12 48 14 192 57 318 96 583 178 898 272 1424 423 228 65 416
121 419 124 8 7 -41 44 -58 44 -8 0 -26 -4 -40 -9z m-1813 -706 c-3 -3 -12 -4
-19 -1 -8 3 -5 6 6 6 11 1 17 -2 13 -5z"/>
<path d="M5720 12034 c-1305 -370 -1773 -506 -2615 -759 -581 -175 -895 -272
-900 -277 -2 -1 -5 -16 -6 -33 -3 -22 0 -29 11 -27 8 2 182 55 385 117 728
223 907 276 911 272 2 -2 -153 -52 -344 -112 -513 -159 -964 -303 -969 -309
-8 -7 -20 -259 -14 -277 5 -14 77 6 486 131 1033 318 2218 660 3169 914 175
47 321 88 323 90 9 8 -29 55 -40 51 -49 -17 -429 -116 -432 -113 -2 2 92 32
210 67 118 35 215 68 215 73 0 15 -85 127 -96 128 -6 0 -114 -31 -240 -69
-333 -101 -679 -199 -1094 -311 -201 -54 -439 -119 -529 -145 -183 -52 -230
-56 -63 -6 153 47 1864 571 1880 576 10 4 6 14 -15 39 -15 19 -30 35 -33 35
-3 0 -93 -25 -200 -55z m65 -230 c-5 -2 -183 -53 -395 -114 -212 -61 -563
-165 -781 -231 -373 -112 -418 -125 -408 -115 2 2 214 70 470 150 430 135
1057 313 1104 314 11 0 16 -1 10 -4z m-2225 -464 c-8 -5 -22 -9 -30 -9 -10 0
-8 3 5 9 27 12 43 12 25 0z"/>
<path d="M5925 11678 c-549 -166 -1732 -530 -2090 -644 -607 -192 -1013 -321
-1348 -429 l-307 -100 2 -35 c2 -25 7 -34 18 -32 8 2 164 50 345 107 902 282
1645 509 1650 503 3 -2 -89 -33 -203 -67 -214 -66 -1216 -379 -1590 -497
l-213 -68 3 -30 c2 -17 8 -30 13 -30 6 1 174 54 375 117 989 313 2716 846
3505 1083 88 26 162 49 163 50 8 5 -73 144 -83 143 -5 -1 -113 -32 -240 -71z"/>
<path d="M6005 11478 c-1880 -569 -3795 -1175 -3795 -1200 0 -6 5 -39 12 -74
9 -50 15 -63 27 -60 9 2 142 43 296 90 1082 330 2148 640 3279 955 219 61 308
79 134 26 -51 -15 -255 -79 -453 -142 -471 -150 -451 -144 -885 -273 -670
-199 -1383 -420 -1960 -607 -162 -52 -319 -102 -348 -111 -28 -8 -52 -19 -52
-25 0 -6 10 -41 22 -79 17 -53 26 -67 37 -63 53 21 1416 473 1696 564 1004
324 1232 390 2063 602 174 44 321 84 325 89 13 11 -53 220 -69 220 -7 0 -119
-30 -249 -66 -131 -36 -239 -64 -241 -61 -2 2 87 30 199 62 111 32 223 64 250
72 l47 14 -15 30 c-9 16 -19 28 -23 25 -4 -2 -332 -99 -727 -215 -396 -115
-999 -294 -1340 -396 -685 -207 -662 -200 -655 -193 10 12 1371 434 2185 678
204 61 407 122 452 136 81 24 82 25 71 49 -7 16 -19 25 -32 24 -12 -1 -124
-32 -251 -71z m-2480 -838 c-11 -5 -27 -9 -35 -9 -9 0 -8 4 5 9 11 5 27 9 35
9 9 0 8 -4 -5 -9z"/>
<path d="M6180 11063 c-129 -41 -370 -117 -535 -169 -165 -53 -367 -117 -450
-143 -533 -169 -2829 -932 -2841 -944 -7 -6 18 -57 27 -57 4 0 106 34 226 75
839 289 2294 735 3781 1161 47 14 52 18 52 45 0 34 -4 34 -77 13 -30 -9 -56
-14 -59 -11 -2 2 25 12 61 22 66 17 74 27 57 66 -6 13 -42 4 -242 -58z"/>
<path d="M6175 10889 c-1175 -360 -2420 -743 -2765 -851 -593 -185 -1014 -319
-1018 -323 -3 -3 14 -42 23 -53 2 -2 65 17 141 42 385 124 2525 787 3314 1026
113 34 270 82 349 106 79 25 164 49 188 56 24 6 46 14 48 19 7 10 -5 59 -14
58 -3 0 -123 -36 -266 -80z"/>
<path d="M6310 10835 c-74 -24 -288 -91 -475 -150 -466 -146 -789 -250 -1330
-426 -491 -161 -2012 -668 -2032 -678 -9 -4 -3 -20 19 -54 25 -39 34 -46 52
-41 228 73 724 220 1046 311 558 156 1999 537 2006 530 3 -2 -31 -14 -73 -27
-593 -175 -2906 -901 -2925 -919 -4 -3 7 -23 25 -45 l33 -38 214 66 c117 36
215 64 218 62 2 -2 -90 -35 -205 -72 -114 -38 -210 -70 -212 -71 -8 -5 93
-113 106 -113 8 0 92 22 186 49 95 28 305 86 467 131 162 45 350 97 418 117
68 19 125 33 128 31 6 -7 -228 -78 -701 -212 -242 -68 -451 -129 -464 -133
-22 -9 -20 -13 59 -85 77 -71 84 -75 113 -67 17 5 33 7 35 4 2 -2 -8 -7 -22
-11 -26 -6 -26 -7 -10 -25 9 -10 25 -21 34 -24 10 -3 146 35 302 86 472 152
942 299 945 295 4 -4 -835 -281 -1079 -357 -76 -24 -138 -45 -138 -49 0 -3 40
-31 88 -62 l88 -58 159 45 c87 24 161 43 163 41 2 -2 -5 -7 -15 -9 -117 -35
-260 -81 -267 -88 -5 -4 6 -15 25 -24 34 -16 35 -16 479 123 1307 411 1412
442 1965 583 237 60 437 112 446 115 22 6 85 124 67 124 -8 0 -56 -13 -108
-29 -323 -100 -751 -222 -1050 -300 -443 -115 -1131 -300 -1330 -357 -85 -24
-159 -44 -165 -43 -38 2 1538 475 2598 779 54 16 101 30 104 33 5 5 65 163 77
204 7 21 6 22 -24 12 -17 -6 -33 -9 -36 -7 -2 3 13 10 34 16 38 12 39 13 60
99 12 48 20 89 17 91 -2 3 -41 -5 -87 -16 -45 -12 -84 -19 -86 -18 -1 2 39 16
90 32 88 28 93 31 99 62 4 17 4 32 2 32 -3 0 -269 -85 -592 -190 -394 -127
-699 -219 -931 -280 -632 -166 -1338 -359 -1869 -511 -172 -49 -315 -88 -317
-86 -2 2 375 130 838 285 936 313 1059 347 2555 723 l322 81 6 40 c4 22 5 41
3 43 -4 4 -160 -35 -587 -146 -85 -22 -155 -38 -157 -36 -5 5 480 157 631 199
l120 33 3 91 3 92 -73 -19 c-40 -11 -215 -56 -388 -100 -173 -44 -449 -116
-614 -160 -164 -44 -300 -78 -302 -76 -3 3 925 274 1279 373 l97 28 0 58 c0
37 -4 58 -11 58 -7 0 -43 -9 -81 -21 -39 -11 -72 -19 -74 -16 -2 2 31 14 73
27 43 12 82 26 86 30 9 8 -1 61 -12 59 -3 0 -67 -20 -141 -44z m-391 -829 c-2
-2 -212 -58 -466 -125 -254 -67 -469 -124 -478 -127 -8 -3 -15 -4 -15 -1 0 10
151 52 540 152 206 53 380 98 385 100 14 5 39 6 34 1z m1 -224 c-39 -15 -375
-111 -378 -107 -7 6 346 112 378 113 13 0 13 0 0 -6z m-2051 -406 c-8 -7 -591
-187 -595 -184 -3 4 406 139 521 172 49 14 83 20 74 12z"/>
<path d="M5550 9391 c-1025 -295 -1437 -416 -1835 -535 l-380 -114 66 -32 66
-33 424 131 c505 156 1179 358 1709 512 212 61 415 120 452 131 59 17 71 25
98 64 31 45 35 56 23 54 -5 -1 -285 -81 -623 -178z"/>
<path d="M5945 9305 c-66 -22 -837 -263 -1010 -314 -205 -62 -385 -113 -1202
-338 -57 -15 -103 -31 -103 -34 0 -4 44 -19 98 -34 l99 -28 389 131 c382 129
638 201 1417 398 l228 57 62 71 c88 100 93 106 76 105 -8 0 -32 -7 -54 -14z"/>
<path d="M5495 9009 c-170 -55 -353 -113 -405 -130 -104 -33 -749 -243 -955
-310 -128 -42 -129 -43 -90 -50 22 -4 101 -11 175 -14 l135 -7 545 157 c598
173 559 157 740 296 89 68 189 158 175 158 -5 0 -149 -45 -320 -100z"/>
<path d="M4150 7540 c-104 -7 -154 -18 -520 -119 -721 -199 -742 -206 -882
-278 -124 -64 -187 -102 -144 -89 30 10 609 174 766 217 599 166 833 229 837
225 2 -2 -44 -20 -104 -39 -255 -84 -701 -237 -1148 -395 -798 -283 -750 -263
-849 -344 -48 -38 -86 -71 -84 -73 2 -2 125 37 273 86 631 209 1840 589 2308
725 92 27 167 52 167 55 0 3 -25 9 -56 12 -50 5 -92 -5 -457 -114 -221 -66
-498 -149 -615 -185 -256 -78 -254 -77 -221 -62 15 7 268 94 562 193 l536 180
-72 6 c-91 8 -153 8 -297 -1z"/>
<path d="M4570 7371 c-891 -316 -1636 -590 -2400 -884 -564 -217 -530 -202
-577 -254 -23 -26 -41 -48 -39 -50 2 -2 61 19 131 47 773 308 2389 906 3214
1188 141 48 145 54 50 66 -39 5 -86 -9 -379 -113z"/>
<path d="M3475 7435 c-5 -2 -63 -19 -127 -39 -129 -40 -281 -96 -275 -102 2
-2 102 30 223 71 120 40 212 74 204 74 -8 -1 -19 -2 -25 -4z"/>
<path d="M4945 7364 c-338 -120 -784 -283 -1325 -484 -278 -104 -584 -215
-680 -248 -195 -67 -1100 -385 -1310 -460 l-135 -48 -92 -115 c-132 -162 -162
-205 -137 -195 34 14 1552 570 1744 639 102 36 311 112 465 168 436 157 758
270 762 266 2 -2 -56 -25 -129 -52 -614 -220 -1626 -611 -2491 -963 l-459
-186 -65 -99 c-35 -54 -63 -101 -61 -103 2 -2 103 35 223 82 274 105 812 308
1090 409 673 246 2290 803 2300 793 3 -3 -118 -48 -268 -102 -333 -120 -1034
-382 -1452 -544 -600 -232 -1029 -405 -1925 -773 -30 -12 -60 -27 -67 -32 -16
-12 -94 -147 -85 -147 4 0 50 16 102 36 706 264 2453 899 3040 1104 107 37
364 128 570 200 206 73 452 158 545 190 94 32 316 109 495 170 179 61 360 123
403 138 42 14 77 29 77 32 0 3 -13 13 -29 23 -29 17 -31 16 -408 -112 -1182
-403 -3257 -1143 -4267 -1522 -88 -32 -161 -58 -162 -56 -4 4 0 5 731 300
1276 514 2593 1004 3712 1380 134 45 243 84 243 87 0 3 -23 17 -51 32 -49 26
-51 26 -95 11 -25 -8 -47 -13 -50 -11 -2 3 15 11 38 18 l43 12 -45 24 c-25 13
-55 23 -66 24 -67 1 -1904 -650 -2974 -1055 -501 -190 -1390 -522 -1445 -540
-153 -51 1027 426 1655 668 1048 405 2294 856 2578 933 53 14 99 28 101 30 9
8 -328 130 -409 147 -16 3 -98 -21 -235 -69z"/>
<path d="M6010 6854 c-1036 -329 -3364 -1124 -4730 -1614 -217 -78 -417 -150
-444 -159 -48 -17 -52 -21 -92 -102 -24 -46 -42 -85 -40 -86 1 -2 94 31 206
72 111 42 204 74 206 72 2 -2 -95 -43 -216 -92 l-219 -88 -41 -90 c-22 -49
-39 -91 -38 -92 2 -2 84 28 183 66 504 194 1090 412 1340 499 154 54 352 123
439 154 88 31 161 55 163 53 2 -2 -43 -21 -99 -42 -439 -162 -1812 -701 -2009
-788 -56 -25 -56 -25 -92 -113 -19 -49 -34 -90 -32 -92 2 -3 227 81 514 192
80 31 146 54 148 52 2 -1 -152 -67 -341 -146 l-343 -143 -47 -128 c-47 -133
-52 -149 -38 -149 4 0 61 22 125 50 320 135 1302 500 1977 735 905 315 1373
475 1377 471 2 -2 -79 -34 -179 -71 -740 -273 -2036 -794 -3136 -1261 l-232
-99 -11 -38 c-6 -22 -9 -41 -6 -43 2 -2 80 28 173 67 1872 785 3950 1566 6027
2265 l468 157 -46 47 -46 47 -287 -93 c-157 -51 -288 -92 -290 -90 -2 2 122
46 275 96 153 51 280 94 282 96 7 6 -31 44 -45 44 -39 0 -2277 -772 -2843
-981 -29 -11 -56 -18 -58 -16 -2 3 9 9 24 15 15 5 186 67 378 137 642 233
1209 432 1960 686 275 93 507 172 515 175 11 4 -4 23 -54 69 l-69 63 -146 -49
c-80 -27 -149 -48 -154 -46 -4 1 58 24 139 51 l146 48 -25 25 -25 26 -374
-126 c-649 -218 -1279 -435 -1708 -590 -69 -25 -213 -77 -320 -115 -837 -300
-1246 -449 -1850 -672 -256 -94 -640 -234 -855 -310 -214 -76 -428 -152 -474
-169 -47 -17 -86 -29 -88 -27 -5 4 574 235 937 374 129 50 388 149 575 220
746 286 1767 658 2730 998 228 80 632 217 977 331 213 70 388 130 387 133 0
11 -273 210 -286 209 -4 0 -114 -34 -243 -75z m-925 -476 c-767 -267 -1801
-638 -2710 -973 -264 -97 -660 -241 -880 -320 -220 -79 -438 -157 -484 -174
-47 -17 -86 -29 -88 -27 -5 4 560 230 937 374 129 50 388 149 575 220 445 170
1386 518 1545 571 190 63 1103 340 1120 340 8 0 2 -5 -15 -11z m244 -271 c-2
-2 -92 -34 -199 -71 -545 -188 -1194 -422 -2020 -729 -289 -107 -700 -259
-915 -337 -214 -79 -516 -189 -669 -246 -275 -102 -371 -132 -198 -62 1161
471 1578 631 2212 846 353 120 1143 389 1505 512 227 78 300 100 284 87z
m-1499 -667 c-8 -5 -19 -10 -25 -10 -5 0 -3 5 5 10 8 5 20 10 25 10 6 0 3 -5
-5 -10z m-1735 -590 c-42 -20 -1033 -413 -1084 -431 -30 -11 -56 -17 -58 -15
-7 7 1129 455 1152 455 6 0 1 -4 -10 -9z"/>
<path d="M7020 6220 c-14 -5 -245 -81 -515 -170 -1935 -640 -3820 -1355 -5875
-2227 -201 -85 -370 -159 -376 -164 -13 -10 -38 -118 -30 -126 3 -3 146 53
318 125 1039 434 1325 544 2022 778 276 92 370 118 199 54 -400 -149 -1922
-771 -2474 -1010 l-96 -41 -20 -95 c-10 -51 -16 -94 -12 -94 4 0 60 21 126 46
196 76 1008 384 1323 502 162 60 491 178 730 262 239 83 597 208 795 277 407
142 396 139 375 125 -8 -6 -116 -48 -240 -95 -502 -190 -1319 -517 -2585
-1035 l-559 -229 -8 -38 c-5 -21 -7 -39 -6 -40 2 -1 145 54 318 122 1535 603
1943 748 3215 1143 215 67 460 144 545 170 85 27 156 48 157 46 4 -3 14 0
-332 -126 -688 -253 -1895 -730 -3265 -1291 -366 -150 -666 -273 -668 -275 -5
-4 -19 -114 -15 -114 3 0 165 67 361 149 897 375 1891 772 2672 1068 681 258
1242 465 1246 460 2 -2 -171 -70 -384 -151 -1109 -425 -2291 -905 -3420 -1388
l-492 -211 0 -34 c0 -18 2 -33 4 -33 2 0 36 14 76 30 40 17 75 28 77 26 2 -2
-34 -19 -79 -39 l-83 -36 -10 -105 c-12 -118 -12 -116 51 -90 129 54 1148 453
1151 450 8 -7 -220 -106 -502 -216 -165 -65 -393 -154 -507 -200 l-208 -81 0
-35 c0 -40 3 -40 66 -14 68 30 64 19 -6 -15 -47 -23 -60 -34 -66 -57 -3 -16
-4 -31 -2 -34 3 -2 85 35 184 82 699 337 914 430 1459 634 221 83 749 269 752
266 2 -2 -83 -38 -189 -81 -513 -208 -1364 -563 -1958 -818 l-245 -105 -3 -36
c-2 -20 -1 -36 2 -36 3 0 159 61 348 136 189 75 350 138 358 140 48 14 -185
-88 -427 -186 l-281 -115 -6 -35 c-9 -54 -7 -160 3 -160 5 0 134 54 287 119
354 151 757 319 1139 476 165 68 317 131 339 140 21 9 40 14 42 12 3 -2 -24
-17 -58 -32 -85 -38 -817 -386 -1213 -577 -176 -85 -371 -176 -432 -203 l-113
-49 0 -78 c0 -43 4 -78 8 -78 4 0 61 23 126 51 64 28 330 131 589 229 260 98
481 181 492 186 149 57 -831 -387 -1060 -480 l-150 -61 4 -95 c2 -52 4 -96 6
-98 2 -2 117 42 256 97 139 55 254 99 256 98 1 -2 -109 -54 -245 -115 -136
-62 -252 -116 -257 -120 -13 -9 -4 -168 10 -165 10 2 699 263 1015 383 85 33
155 58 157 56 2 -1 -160 -76 -360 -166 -199 -90 -463 -210 -587 -266 l-225
-103 4 -47 c1 -26 6 -65 10 -89 l6 -42 195 85 c553 239 2466 1020 2475 1010 2
-2 -162 -74 -364 -160 -501 -215 -965 -423 -1471 -660 -234 -110 -514 -241
-623 -291 l-198 -92 5 -54 c3 -30 11 -58 18 -62 10 -7 10 -9 1 -9 -9 0 -11
-10 -6 -32 3 -18 7 -34 7 -35 1 -1 62 22 135 53 74 30 136 53 138 51 2 -2 -58
-33 -133 -68 l-136 -64 7 -55 c4 -30 10 -58 14 -63 4 -4 122 36 262 88 285
108 473 175 486 175 4 0 -158 -72 -361 -160 -203 -88 -371 -162 -374 -164 -5
-6 39 -241 49 -257 4 -7 146 50 385 154 588 255 605 262 1028 403 383 128 489
160 334 99 -134 -52 -819 -340 -1240 -521 l-416 -179 74 -3 74 -3 323 139
c579 251 1846 776 1853 769 2 -2 -164 -74 -369 -162 -360 -153 -1250 -544
-1547 -679 l-145 -65 89 -1 90 0 480 204 c1310 556 2933 1209 3356 1349 107
36 411 131 675 212 264 81 536 164 605 185 133 42 171 47 68 10 -611 -219
-2364 -872 -3303 -1230 -563 -215 -1112 -434 -1498 -598 l-298 -127 71 -3 c70
-3 75 -2 308 97 347 145 885 362 889 357 2 -2 -47 -25 -109 -51 -144 -61 -878
-384 -898 -396 -9 -5 73 -8 205 -6 l220 2 145 66 c320 145 762 324 1070 434
503 181 967 344 1410 497 223 77 522 181 665 230 308 107 2605 878 2614 878
39 -2 -299 -124 -929 -335 -2190 -735 -2971 -1009 -3700 -1298 -173 -68 -516
-203 -762 -298 l-448 -174 126 -3 126 -3 117 50 c117 50 543 206 1315 482 674
241 1537 541 1542 536 2 -1 -155 -67 -349 -146 -194 -79 -500 -206 -682 -281
-274 -114 -407 -162 -785 -283 -250 -80 -597 -193 -770 -251 l-315 -104 95 -1
c94 -1 99 0 350 84 139 47 255 83 257 81 2 -1 -86 -39 -194 -82 l-198 -79 172
-3 172 -2 128 51 c140 56 291 111 967 350 247 88 451 158 453 155 2 -2 -54
-27 -124 -55 -70 -28 -367 -151 -659 -274 l-531 -222 104 -3 104 -3 212 80
c192 72 350 132 1226 462 145 55 265 98 268 96 2 -2 -18 -12 -44 -22 -130 -48
-864 -341 -1171 -467 l-347 -143 66 -3 c65 -3 74 0 515 177 1014 405 2441 957
2451 947 2 -2 -164 -70 -369 -151 -375 -149 -1868 -758 -2203 -899 l-180 -75
301 -1 301 0 374 131 c510 178 1208 419 1594 549 176 60 469 159 650 220 182
62 713 240 1180 395 l850 282 3 76 3 76 -28 -9 c-47 -15 -502 -160 -600 -191
-51 -16 -135 -42 -185 -58 -1183 -371 -2577 -840 -3657 -1230 -63 -23 -115
-40 -117 -38 -6 6 1261 524 2191 897 1159 464 1912 756 2202 854 l183 61 0 48
c0 26 -4 47 -8 47 -4 0 -82 -25 -172 -55 -91 -31 -232 -76 -315 -101 -82 -25
-307 -94 -500 -154 -460 -143 -1218 -370 -1222 -366 -2 2 32 17 74 33 43 17
355 139 693 273 766 301 949 369 1222 456 207 66 218 70 218 94 0 51 -11 72
-34 66 -54 -15 -66 -14 -23 1 43 15 47 19 46 47 -1 17 -4 40 -7 52 -7 20 -14
19 -232 -52 -124 -41 -229 -72 -233 -71 -8 2 349 137 422 158 42 13 43 13 37
48 -3 20 -6 46 -6 59 0 12 -6 22 -14 22 -17 0 -286 -80 -716 -211 -844 -260
-1648 -528 -2670 -892 -406 -145 -490 -174 -760 -266 -129 -43 -293 -100 -364
-125 -71 -26 -131 -45 -133 -43 -2 2 18 12 44 22 27 10 185 72 353 138 168 66
355 137 415 157 1120 385 2608 880 3605 1201 124 40 227 74 229 75 2 2 0 17
-5 32 l-9 29 -340 -109 c-268 -86 -1711 -559 -1783 -585 -10 -4 -14 -3 -11 0
8 9 1021 374 1312 473 87 29 307 97 490 150 183 53 333 97 334 98 4 3 -24 176
-29 181 -6 6 -744 -231 -1583 -509 -373 -124 -680 -224 -682 -223 -6 7 1421
512 1967 697 151 51 279 97 284 101 7 6 -66 405 -77 415 -2 2 -118 -27 -258
-65 -139 -38 -255 -68 -257 -66 -2 1 108 40 245 85 136 45 251 85 255 89 9 8
-25 144 -38 148 -18 6 -2223 -730 -3228 -1078 -269 -93 -491 -168 -493 -166
-3 4 46 23 882 334 824 307 1562 573 2653 958 89 32 162 62 162 67 0 11 -30
118 -33 118 -5 0 -400 -134 -687 -233 -633 -218 -2057 -728 -2750 -985 -734
-272 -2402 -902 -2754 -1041 -245 -97 -135 -44 221 107 853 360 1815 745 2873
1152 493 190 1550 536 2875 943 170 52 210 68 213 83 5 38 -11 46 -58 29 -24
-8 -45 -13 -48 -11 -2 3 15 10 38 17 23 7 44 19 47 26 9 22 -73 248 -88 244
-8 -1 -67 -19 -132 -38 -65 -19 -120 -33 -123 -31 -2 3 57 24 131 47 l135 42
-16 37 c-9 20 -18 44 -21 52 -23 69 -25 72 -56 66 -60 -12 -1769 -550 -1912
-602 -11 -4 -18 -5 -15 -1 13 14 788 289 1320 467 322 108 591 198 599 201 12
4 11 15 -8 62 -13 31 -26 57 -29 57 -30 0 -1315 -411 -1792 -574 -1236 -421
-2661 -941 -3595 -1313 -328 -130 -702 -273 -714 -273 -15 1 54 29 469 193
1646 649 3372 1278 5160 1882 217 73 407 138 422 144 l27 10 -18 41 c-10 22
-20 43 -23 45 -16 16 -1690 -526 -2528 -818 -1186 -413 -2577 -939 -3679
-1391 -129 -53 -236 -94 -238 -92 -2 2 25 16 59 31 35 16 207 95 383 178 958
447 998 464 2050 858 561 211 1238 458 1655 605 373 131 1829 615 2055 683 94
29 176 54 183 56 9 3 4 21 -18 65 -17 33 -31 60 -33 60 -1 0 -171 -56 -377
-125 -206 -69 -584 -189 -840 -266 -1046 -316 -1333 -403 -1513 -460 -104 -33
-191 -58 -193 -56 -2 2 67 28 154 59 86 31 310 111 497 178 622 223 1676 590
2082 724 l142 47 -32 65 c-20 41 -36 63 -44 59 -76 -28 -1476 -486 -1479 -483
-2 3 328 115 733 250 405 135 739 250 740 255 2 5 -3 18 -11 28 -14 19 -38 12
-833 -253 -1081 -362 -2443 -833 -3152 -1092 -107 -39 -196 -69 -198 -67 -4 4
62 30 897 349 517 198 963 366 1275 480 419 153 938 318 1570 498 176 50 343
97 372 105 l51 15 -41 71 c-22 39 -47 73 -54 76 -17 7 -617 -184 -1333 -423
-1107 -370 -2098 -726 -3180 -1144 -488 -189 -922 -351 -926 -347 -4 4 822
334 1431 572 916 358 1989 761 2995 1124 500 181 637 228 785 271 17 5 63 18
103 30 l73 21 -22 32 c-13 18 -24 34 -25 36 -2 1 -29 -6 -62 -17 -32 -12 -182
-57 -333 -102 -151 -45 -398 -119 -549 -165 -151 -46 -412 -124 -580 -175
-953 -287 -2988 -923 -3424 -1069 -99 -34 -181 -59 -183 -58 -8 8 1100 438
1687 654 1130 416 2280 793 3216 1053 l121 34 -35 53 c-19 29 -37 53 -40 53
-6 0 -529 -169 -866 -280 -116 -38 -212 -68 -214 -66 -2 2 237 84 530 181 293
98 535 179 537 181 4 3 -160 214 -167 214 -19 0 -689 -216 -1212 -390 -639
-212 -1147 -389 -1670 -580 -274 -100 -1148 -385 -1157 -377 -2 2 77 33 174
70 98 36 313 116 478 177 962 358 2373 851 3135 1095 96 30 181 58 188 60 10
4 9 11 -5 30 -14 20 -24 24 -48 20 -37 -6 -1416 -463 -1839 -609 -170 -58
-311 -104 -314 -101 -3 3 -3 5 0 5 3 0 166 57 364 126 433 152 813 280 1359
460 226 74 416 137 423 139 10 4 9 11 -5 30 -19 26 -25 28 -63 15z m-2090
-784 c0 -6 -123 -47 -127 -42 -2 2 22 13 54 24 62 22 73 24 73 18z m-210 -76
c-8 -5 -19 -10 -25 -10 -5 0 -3 5 5 10 8 5 20 10 25 10 6 0 3 -5 -5 -10z
m1640 -460 c-8 -5 -19 -10 -25 -10 -5 0 -3 5 5 10 8 5 20 10 25 10 6 0 3 -5
-5 -10z m-50 -14 c0 -6 -93 -37 -97 -32 -2 2 15 11 39 19 47 17 58 19 58 13z
m1215 -597 c-27 -11 -351 -121 -720 -245 -993 -335 -1277 -431 -1619 -548
-170 -58 -311 -104 -313 -102 -3 3 422 155 1027 366 173 60 549 187 835 281
286 94 585 193 665 219 148 49 215 65 125 29z m-660 -29 c-11 -5 -184 -66
-384 -135 -1933 -668 -4217 -1541 -5931 -2268 -290 -123 -531 -219 -537 -214
-13 14 1224 537 2157 912 1441 579 2546 987 4065 1501 566 191 694 233 630
204z m1285 0 c-8 -5 -22 -9 -30 -9 -10 0 -8 3 5 9 27 12 43 12 25 0z m-2841
-14 c-2 -2 -191 -74 -419 -159 -228 -86 -543 -205 -699 -266 -157 -61 -286
-109 -288 -107 -9 9 642 261 1187 460 189 69 230 83 219 72z m2426 -119 c-420
-137 -2140 -714 -2479 -831 -137 -47 -251 -84 -253 -82 -2 2 9 8 24 14 763
274 1746 607 2453 831 157 49 348 110 425 134 77 25 147 45 155 45 8 0 -138
-50 -325 -111z m410 -67 c-11 -5 -27 -9 -35 -9 -9 0 -8 4 5 9 11 5 27 9 35 9
9 0 8 -4 -5 -9z m-100 -30 c-27 -10 -57 -18 -65 -18 -8 0 8 8 35 18 28 10 57
18 65 18 8 0 -7 -8 -35 -18z m-6075 -29 c-8 -5 -26 -11 -40 -15 -21 -5 -20 -3
5 9 32 15 60 20 35 6z m5945 -11 c-27 -10 -57 -18 -65 -18 -8 0 8 8 35 18 28
10 57 18 65 18 8 0 -7 -8 -35 -18z m-6025 -19 c-8 -5 -26 -11 -40 -15 -21 -5
-20 -3 5 9 32 15 60 20 35 6z m5876 -27 c-39 -13 -75 -24 -80 -23 -15 1 116
47 134 47 8 0 -16 -10 -54 -24z m-141 -44 c-27 -10 -57 -18 -65 -18 -8 0 8 8
35 18 28 10 57 18 65 18 8 0 -7 -8 -35 -18z m-149 -46 c-39 -13 -75 -24 -80
-23 -15 1 116 47 134 47 8 0 -16 -10 -54 -24z m-251 -79 c-71 -24 -330 -109
-575 -190 -1073 -355 -2862 -999 -3654 -1314 -71 -29 -130 -50 -132 -48 -2 2
38 22 89 44 50 23 196 89 324 147 229 105 451 189 1143 433 693 244 1775 607
2465 828 149 48 308 99 355 115 47 16 92 28 100 28 8 0 -43 -19 -115 -43z
m-3426 -29 c-2 -2 -33 -16 -69 -31 -36 -15 -209 -92 -385 -170 -272 -122 -369
-160 -644 -250 -179 -59 -448 -151 -600 -206 -151 -54 -276 -97 -278 -96 -1 2
77 40 175 84 164 75 536 216 1432 542 328 120 381 138 369 127z m516 -15 c-11
-4 -157 -57 -325 -116 -168 -60 -525 -188 -794 -286 -270 -98 -491 -177 -493
-175 -8 8 991 385 1187 448 118 38 260 85 315 103 88 29 165 48 110 26z
m-1396 -135 c-2 -2 -135 -56 -294 -119 -160 -63 -445 -179 -635 -257 -298
-122 -1058 -405 -1067 -397 -6 7 652 266 1412 557 275 105 516 197 535 205 35
14 57 19 49 11z m-709 -136 c-8 -5 -19 -10 -25 -10 -5 0 -3 5 5 10 8 5 20 10
25 10 6 0 3 -5 -5 -10z m4215 -20 c-35 -16 -1503 -530 -1513 -530 -19 0 34 20
259 101 241 86 971 341 1164 407 87 29 131 40 90 22z m-2816 -44 c-18 -18
-419 -184 -760 -315 -756 -291 -1617 -635 -2203 -880 -93 -39 -171 -69 -173
-67 -4 3 219 103 362 161 903 369 1701 690 2330 935 397 155 456 177 444 166z
m1330 -51 c-3 -2 -83 -33 -179 -69 -96 -35 -265 -99 -375 -141 -110 -42 -415
-155 -678 -251 -522 -191 -974 -359 -1392 -519 -148 -57 -346 -131 -440 -164
-93 -33 -228 -82 -300 -109 -163 -63 -177 -67 -144 -48 31 18 482 213 749 324
249 104 1013 379 2015 726 231 80 490 170 575 200 147 52 179 62 169 51z
m3191 -119 c0 -3 -80 -30 -177 -61 -98 -31 -326 -105 -508 -165 -404 -133
-535 -173 -541 -168 -6 7 1173 391 1219 397 4 1 7 -1 7 -3z m-5450 -86 c-8 -5
-19 -10 -25 -10 -5 0 -3 5 5 10 8 5 20 10 25 10 6 0 3 -5 -5 -10z m5370 -44
c0 -3 -35 -16 -77 -30 -43 -13 -213 -70 -377 -125 -165 -56 -301 -99 -303 -97
-4 4 29 16 467 165 249 85 290 97 290 87z m-671 -31 c-3 -2 -151 -52 -330
-109 -178 -58 -405 -132 -503 -165 -99 -34 -181 -59 -183 -57 -8 7 555 201
772 266 228 68 253 74 244 65z m-113 -311 c-121 -40 -221 -72 -223 -70 -5 5
407 144 427 144 8 0 -84 -33 -204 -74z m792 -29 c-3 -3 -149 -54 -324 -114
-175 -60 -373 -128 -439 -151 -159 -55 -607 -191 -612 -186 -3 2 80 32 184 65
103 34 411 135 683 225 480 160 519 172 508 161z m-2569 -149 c-5 -6 -289
-109 -489 -177 -80 -28 -194 -68 -255 -89 -60 -21 -162 -56 -225 -78 -740
-258 -1607 -570 -2063 -743 -115 -44 -212 -78 -213 -76 -6 5 402 166 641 253
503 182 892 320 1560 554 1072 374 1058 369 1044 356z m560 -110 c-9 -8 -742
-275 -994 -361 -325 -112 -975 -340 -1210 -425 -93 -34 -289 -100 -435 -147
-146 -46 -375 -120 -509 -164 -134 -43 -246 -77 -248 -75 -2 2 74 30 169 64
95 33 308 108 473 167 271 96 530 186 1385 482 151 52 513 176 805 274 291 99
531 182 534 184 2 3 11 5 19 5 9 0 13 -2 11 -4z m-3089 -56 c-8 -5 -19 -10
-25 -10 -5 0 -3 5 5 10 8 5 20 10 25 10 6 0 3 -5 -5 -10z m1560 0 c-8 -5 -19
-10 -25 -10 -5 0 -3 5 5 10 8 5 20 10 25 10 6 0 3 -5 -5 -10z m2090 -10 c-8
-5 -19 -10 -25 -10 -5 0 -3 5 5 10 8 5 20 10 25 10 6 0 3 -5 -5 -10z m-3691
-4 c-2 -2 -152 -63 -334 -134 -328 -129 -1197 -479 -1454 -586 -245 -102 -145
-52 217 109 454 202 387 174 1017 411 496 187 566 212 554 200z m1560 0 c-2
-2 -135 -56 -295 -119 -315 -124 -747 -300 -1128 -459 -351 -146 -509 -208
-795 -312 -141 -52 -323 -119 -405 -150 -144 -54 -177 -65 -146 -47 63 37
1621 656 2355 937 367 140 426 162 414 150z m2060 -20 c-2 -3 -110 -43 -239
-89 -250 -90 -925 -341 -1150 -427 -74 -29 -259 -99 -410 -157 -235 -91 -789
-277 -797 -269 -8 7 1317 496 2017 744 173 62 371 132 440 156 118 43 149 52
139 42z m-1879 -16 c-8 -5 -19 -10 -25 -10 -5 0 -3 5 5 10 8 5 20 10 25 10 6
0 3 -5 -5 -10z m-1491 -124 c-2 -2 -85 -36 -184 -74 -367 -143 -1139 -458
-1694 -691 -145 -61 -266 -109 -268 -107 -4 4 549 254 812 366 393 168 541
227 925 366 366 132 420 151 409 140z m3091 -36 c-8 -5 -19 -10 -25 -10 -5 0
-3 5 5 10 8 5 20 10 25 10 6 0 3 -5 -5 -10z m-1260 -20 c-8 -5 -19 -10 -25
-10 -5 0 -3 5 5 10 8 5 20 10 25 10 6 0 3 -5 -5 -10z m729 -14 c-2 -2 -182
-68 -399 -146 -646 -232 -1489 -550 -2150 -810 -194 -77 -1159 -404 -1167
-396 -6 6 783 321 1097 438 262 97 1126 402 2190 772 386 135 440 153 429 142z
m-3424 -124 c-6 -5 -104 -52 -220 -105 -182 -84 -693 -282 -702 -273 -2 1 59
28 134 59 76 31 284 117 463 191 179 74 327 135 330 136 2 0 0 -4 -5 -8z
m4594 -276 c-2 -2 -130 -47 -285 -99 -345 -118 -784 -272 -1043 -367 -107 -39
-195 -69 -197 -67 -11 10 550 222 826 313 179 58 404 132 500 164 157 52 212
68 199 56z m-3944 -231 c-33 -13 -215 -80 -405 -149 -190 -68 -412 -150 -494
-180 -82 -31 -151 -54 -153 -52 -7 6 605 240 872 332 205 71 300 97 180 49z
m5364 11 c-2 -2 -146 -50 -319 -106 -173 -56 -450 -146 -615 -200 -1029 -338
-1309 -429 -1313 -426 -5 6 1431 482 1918 636 107 34 220 70 250 80 52 17 88
25 79 16z m-2040 -100 c-2 -2 -128 -54 -279 -114 -254 -101 -558 -208 -567
-198 -2 2 49 23 114 47 65 23 253 93 418 155 275 104 326 122 314 110z m-1659
-26 c-8 -5 -19 -10 -25 -10 -5 0 -3 5 5 10 8 5 20 10 25 10 6 0 3 -5 -5 -10z
m-1390 -40 c-8 -5 -19 -10 -25 -10 -5 0 -3 5 5 10 8 5 20 10 25 10 6 0 3 -5
-5 -10z m-41 -14 c-17 -17 -958 -370 -966 -363 -2 2 52 25 119 51 798 303 862
326 847 312z m3136 -56 c-11 -5 -90 -34 -175 -64 -236 -83 -1252 -455 -1545
-566 -143 -54 -269 -101 -280 -105 -62 -20 33 23 206 94 107 43 307 125 444
181 275 113 1518 536 1350 460z m-4076 -224 c-2 -3 -92 -38 -199 -79 -107 -41
-230 -89 -274 -106 -43 -18 -80 -30 -82 -29 -7 8 266 123 396 167 139 47 168
56 159 47z m-960 -110 c-8 -8 -383 -165 -386 -162 -4 4 107 55 257 117 104 44
141 57 129 45z m1401 -36 c-8 -5 -19 -10 -25 -10 -5 0 -3 5 5 10 8 5 20 10 25
10 6 0 3 -5 -5 -10z m-50 -20 c-8 -5 -19 -10 -25 -10 -5 0 -3 5 5 10 8 5 20
10 25 10 6 0 3 -5 -5 -10z m509 -94 c-17 -16 -749 -309 -756 -302 -4 4 13 11
457 190 255 103 313 125 299 112z"/>
<path d="M8245 1406 c-214 -74 -525 -181 -690 -238 -165 -58 -523 -178 -795
-267 -546 -178 -1154 -382 -1705 -574 -416 -145 -898 -317 -904 -322 -2 -2
111 -4 250 -4 l254 -1 450 149 c247 83 570 186 716 230 146 44 275 83 285 86
17 6 18 6 2 -5 -10 -6 -122 -48 -250 -94 -128 -46 -343 -125 -478 -176 -135
-51 -310 -115 -390 -141 l-145 -48 286 -1 285 0 235 96 c205 84 877 319 886
311 5 -5 -562 -224 -826 -318 l-234 -84 281 -3 280 -2 448 150 c246 82 449
149 450 147 2 -2 -162 -68 -364 -148 l-367 -144 189 -3 189 -2 206 64 c292 92
1025 315 1433 437 341 102 348 104 354 132 3 16 4 30 2 33 -3 2 -51 -10 -107
-27 -57 -17 -105 -29 -107 -26 -2 2 45 19 106 38 101 31 110 36 116 62 3 16 4
31 1 33 -6 6 -608 -172 -977 -288 -140 -44 -264 -82 -275 -84 l-20 -5 20 10
c59 27 973 366 1107 411 l157 52 5 36 c3 21 8 63 12 96 6 55 6 58 -14 52 -11
-4 -172 -52 -358 -107 -326 -96 -660 -199 -848 -260 -50 -16 -91 -27 -93 -26
-4 5 418 162 586 218 79 27 273 90 430 140 157 50 291 97 297 103 7 6 15 63
19 129 l7 118 -28 -7 c-16 -4 -53 -15 -83 -26 -30 -10 -56 -16 -58 -14 -2 2
31 16 74 31 43 15 81 30 85 33 11 11 22 182 12 181 -5 0 -184 -60 -399 -133z
m-105 -143 c-463 -153 -1415 -461 -1418 -459 -1 2 113 44 255 94 242 84 424
144 843 276 96 30 238 75 315 99 77 25 147 45 155 45 8 0 -59 -24 -150 -55z
m-710 -664 c-63 -21 -119 -39 -125 -38 -14 1 207 77 225 77 8 0 -37 -17 -100
-39z m-204 -65 c-38 -13 -71 -22 -73 -20 -5 5 107 44 127 44 8 0 -16 -10 -54
-24z m124 -34 c-8 -5 -19 -10 -25 -10 -5 0 -3 5 5 10 8 5 20 10 25 10 6 0 3
-5 -5 -10z m-60 -20 c-8 -5 -19 -10 -25 -10 -5 0 -3 5 5 10 8 5 20 10 25 10 6
0 3 -5 -5 -10z m-43 -16 c-3 -3 -12 -4 -19 -1 -8 3 -5 6 6 6 11 1 17 -2 13 -5z
m-1197 -139 c0 -9 -73 -36 -366 -135 -345 -118 -344 -118 -274 -84 38 18 565
203 638 223 1 1 2 -1 2 -4z m-1021 -79 c-13 -13 -659 -239 -666 -233 -3 4 644
235 661 236 5 1 7 -1 5 -3z"/>
<path d="M8400 464 c-80 -25 -343 -106 -585 -181 -242 -74 -543 -167 -670
-207 l-230 -71 367 -3 367 -2 433 145 c237 80 433 147 435 149 3 3 14 61 38
189 2 15 1 27 -3 26 -4 0 -72 -21 -152 -45z m-50 -164 c-8 -5 -22 -9 -30 -9
-10 0 -8 3 5 9 27 12 43 12 25 0z m-65 -20 c-37 -17 -729 -239 -733 -236 -5 6
218 83 483 166 230 73 301 93 250 70z"/>
<path d="M8170 108 l-325 -107 99 -1 c97 0 106 2 315 71 119 39 222 77 229 84
8 7 12 23 10 37 l-3 24 -325 -108z"/>
<path d="M8305 60 l-170 -58 111 -1 c103 -1 190 15 217 39 11 10 27 80 18 79
-3 0 -82 -27 -176 -59z"/>
</g>
</svg>
