<?xml version="1.0" standalone="no"?>
<!DOCTYPE svg PUBLIC "-//W3C//DTD SVG 20010904//EN"
 "http://www.w3.org/TR/2001/REC-SVG-20010904/DTD/svg10.dtd">
<svg version="1.0" xmlns="http://www.w3.org/2000/svg"
 width="957.000000pt" height="1280.000000pt" viewBox="0 0 957.000000 1280.000000"
 preserveAspectRatio="xMidYMid meet">
<metadata>
Created by potrace 1.15, written by Peter Selinger 2001-2017
</metadata>
<g transform="translate(0.000000,1280.000000) scale(0.100000,-0.100000)"
fill="#ffffff" stroke="none">
<path d="M4740 12794 c-245 -21 -312 -28 -419 -45 -1068 -170 -1861 -796
-2161 -1708 -87 -262 -123 -492 -123 -776 1 -399 82 -750 258 -1110 121 -248
260 -446 453 -647 411 -426 979 -712 1624 -817 253 -41 312 -45 593 -46 283 0
340 5 566 46 467 85 902 299 1245 611 856 778 1110 2113 600 3153 -120 244
-257 437 -440 621 -388 387 -904 624 -1522 699 -121 15 -572 28 -674 19z"/>
<path d="M4402 7519 c-933 -44 -2487 -460 -3517 -942 -288 -135 -559 -296
-696 -414 -106 -91 -189 -205 -189 -261 0 -44 32 -101 68 -124 31 -19 52 -23
142 -24 127 -3 209 -26 300 -85 533 -344 899 -1595 1080 -3694 27 -320 45
-571 80 -1150 36 -599 45 -687 71 -742 30 -63 92 -93 160 -78 18 4 137 92 298
220 1078 857 1743 1236 2366 1346 152 27 423 29 563 6 567 -97 1113 -418 2071
-1221 346 -290 343 -288 399 -293 37 -4 54 0 81 19 64 43 70 63 81 289 31 608
93 1322 166 1904 232 1858 634 3072 1126 3406 100 68 175 91 305 94 100 2 116
4 148 26 44 30 70 93 61 144 -16 86 -201 262 -441 420 -750 495 -2369 992
-3680 1130 -219 23 -786 36 -1043 24z"/>
</g>
</svg>
